<svg xmlns="http://www.w3.org/2000/svg" width="326.0207" height="359.002" viewBox="0 0 86.2596 94.986"><g transform="translate(2.0817 118.5924)"><text xml:space="preserve" x="8.672" y="-82.9322" fill="#f9f9f9" stroke="#1a1a1a" stroke-linecap="round" stroke-linejoin="bevel" stroke-width="1.0583" font-family="Fira Mono" font-size="3.1538" font-weight="700" paint-order="markers stroke fill" style="-inkscape-font-specification:&quot;Fira Mono, Bold&quot;;font-variant-ligatures:normal;font-variant-caps:normal;font-variant-numeric:normal;font-variant-east-asian:normal;text-align:center" text-anchor="middle"><tspan x="8.672" y="-82.9322" style="-inkscape-font-specification:&quot;Fira Mono, Bold&quot;;font-variant-ligatures:normal;font-variant-caps:normal;font-variant-numeric:normal;font-variant-east-asian:normal;text-align:center">Reassembled</tspan><tspan x="8.672" y="-78.9899" style="-inkscape-font-specification:&quot;Fira Mono, Bold&quot;;font-variant-ligatures:normal;font-variant-caps:normal;font-variant-numeric:normal;font-variant-east-asian:normal;text-align:center">&apos;images&apos;</tspan></text><path fill="#f9f9f9" stroke="#1a1a1a" stroke-linecap="round" stroke-width=".7937" d="M26.1615-56.9288h6.635v.7788l1.428-.919-1.428-.9189v.6944h-6.635zM26.1615-73.354h6.635v.7788l1.428-.919-1.428-.919v.6944h-6.635zM26.1615-89.7793h6.635v.7788l1.428-.919-1.428-.919v.6944h-6.635zM46.3004-100.414v2.9307h-.7788l.919 1.4279.9189-1.4279h-.6943v-2.9308zM46.3004-84.1554v2.9308h-.7788l.919 1.4279.9189-1.428h-.6943v-2.9307zM46.3004-67.6825v2.9308h-.7788l.919 1.4279.9189-1.428h-.6943v-2.9307zM46.3004-51.1512v2.9307h-.7788l.919 1.428.9189-1.428h-.6943v-2.9307zM26.1615-106.7338h6.635v.7788l1.428-.9189-1.428-.919v.6944h-6.635z" paint-order="markers stroke fill"/><text xml:space="preserve" x="46.3838" y="-115.5119" fill="#f9f9f9" stroke="#1a1a1a" stroke-linecap="round" stroke-linejoin="bevel" stroke-width="1.0583" font-family="Fira Mono" font-size="3.1538" font-weight="700" paint-order="markers stroke fill" style="-inkscape-font-specification:&quot;Fira Mono, Bold&quot;;font-variant-ligatures:normal;font-variant-caps:normal;font-variant-numeric:normal;font-variant-east-asian:normal;text-align:center" text-anchor="middle"><tspan x="46.3838" y="-115.5119" style="-inkscape-font-specification:&quot;Fira Mono, Bold&quot;;font-variant-ligatures:normal;font-variant-caps:normal;font-variant-numeric:normal;font-variant-east-asian:normal">Fusion Model</tspan></text><text xml:space="preserve" x="71.5131" y="-47.8436" fill="#f9f9f9" stroke="#1a1a1a" stroke-linecap="round" stroke-linejoin="bevel" stroke-width="1.0583" font-family="Fira Mono" font-size="3.1538" font-weight="700" paint-order="markers stroke fill" style="-inkscape-font-specification:&quot;Fira Mono, Bold&quot;;font-variant-ligatures:normal;font-variant-caps:normal;font-variant-numeric:normal;font-variant-east-asian:normal;text-align:center" text-anchor="middle"><tspan x="71.5131" y="-47.8436" style="-inkscape-font-specification:&quot;Fira Mono, Bold&quot;;font-variant-ligatures:normal;font-variant-caps:normal;font-variant-numeric:normal;font-variant-east-asian:normal">Single Output</tspan><tspan x="71.5131" y="-43.9014" style="-inkscape-font-specification:&quot;Fira Mono, Bold&quot;;font-variant-ligatures:normal;font-variant-caps:normal;font-variant-numeric:normal;font-variant-east-asian:normal">&apos;image&apos;</tspan><tspan x="71.5131" y="-39.9591" style="-inkscape-font-specification:&quot;Fira Mono, Bold&quot;;font-variant-ligatures:normal;font-variant-caps:normal;font-variant-numeric:normal;font-variant-east-asian:normal">upscaled 8x</tspan></text><text xml:space="preserve" x="70.6529" y="-82.9322" fill="#f9f9f9" stroke="#1a1a1a" stroke-linecap="round" stroke-linejoin="bevel" stroke-width="1.0583" font-family="Fira Mono" font-size="3.1538" font-weight="700" paint-order="markers stroke fill" style="-inkscape-font-specification:&quot;Fira Mono, Bold&quot;;font-variant-ligatures:normal;font-variant-caps:normal;font-variant-numeric:normal;font-variant-east-asian:normal;text-align:center" text-anchor="middle"><tspan x="70.6529" y="-82.9322" style="-inkscape-font-specification:&quot;Fira Mono, Bold&quot;;font-variant-ligatures:normal;font-variant-caps:normal;font-variant-numeric:normal;font-variant-east-asian:normal">Each block</tspan><tspan x="70.6529" y="-78.9899" style="-inkscape-font-specification:&quot;Fira Mono, Bold&quot;;font-variant-ligatures:normal;font-variant-caps:normal;font-variant-numeric:normal;font-variant-east-asian:normal">upscales 2x</tspan></text><g transform="translate(-24.8708 2.9629)"><rect width="21.6709" height="9.7374" x="60.4759" y="-64.9005" fill="#f05" ry="1.7937"/><text xml:space="preserve" x="71.2499" y="-58.8302" stroke-linecap="square" stroke-linejoin="bevel" stroke-width=".5292" font-family="Fira Mono" font-size="3.1538" font-weight="400" paint-order="markers stroke fill" style="-inkscape-font-specification:&quot;Fira Mono, Normal&quot;;font-variant-ligatures:normal;font-variant-caps:normal;font-variant-numeric:normal;font-variant-east-asian:normal;text-align:center" text-anchor="middle"><tspan x="71.2499" y="-58.8302" style="-inkscape-font-specification:&quot;Fira Mono, Normal&quot;;font-variant-ligatures:normal;font-variant-caps:normal;font-variant-numeric:normal;font-variant-east-asian:normal;text-align:center">Fusion</tspan></text></g><g transform="translate(-24.815 2.7015)"><rect width="21.6709" height="9.7374" x="60.4201" y="-81.0644" fill="#f05" ry="1.7937"/><text xml:space="preserve" x="71.1941" y="-74.9941" stroke-linecap="square" stroke-linejoin="bevel" stroke-width=".5292" font-family="Fira Mono" font-size="3.1538" font-weight="400" paint-order="markers stroke fill" style="-inkscape-font-specification:&quot;Fira Mono, Normal&quot;;font-variant-ligatures:normal;font-variant-caps:normal;font-variant-numeric:normal;font-variant-east-asian:normal;text-align:center" text-anchor="middle"><tspan x="71.1941" y="-74.9941" style="-inkscape-font-specification:&quot;Fira Mono, Normal&quot;;font-variant-ligatures:normal;font-variant-caps:normal;font-variant-numeric:normal;font-variant-east-asian:normal;text-align:center">Fusion</tspan></text></g><g transform="translate(-23.5991 2.979)"><rect width="21.6709" height="9.7374" x="59.2042" y="-97.7672" fill="#f05" ry="1.7937"/><text xml:space="preserve" x="69.9782" y="-91.697" stroke-linecap="square" stroke-linejoin="bevel" stroke-width=".5292" font-family="Fira Mono" font-size="3.1538" font-weight="400" paint-order="markers stroke fill" style="-inkscape-font-specification:&quot;Fira Mono, Normal&quot;;font-variant-ligatures:normal;font-variant-caps:normal;font-variant-numeric:normal;font-variant-east-asian:normal;text-align:center" text-anchor="middle"><tspan x="69.9782" y="-91.697" style="-inkscape-font-specification:&quot;Fira Mono, Normal&quot;;font-variant-ligatures:normal;font-variant-caps:normal;font-variant-numeric:normal;font-variant-east-asian:normal;text-align:center">Fusion</tspan></text></g><g transform="translate(-24.8708)"><rect width="21.6709" height="9.7374" x="60.4759" y="-111.0311" fill="#f05" ry="1.7937"/><text xml:space="preserve" x="71.376" y="-107.0644" stroke-linecap="square" stroke-linejoin="bevel" stroke-width=".5292" font-family="Fira Mono" font-size="3.1538" font-weight="400" paint-order="markers stroke fill" style="-inkscape-font-specification:&quot;Fira Mono, Normal&quot;;font-variant-ligatures:normal;font-variant-caps:normal;font-variant-numeric:normal;font-variant-east-asian:normal;text-align:center" text-anchor="middle"><tspan x="71.376" y="-107.0644" style="-inkscape-font-specification:&quot;Fira Mono, Normal&quot;;font-variant-ligatures:normal;font-variant-caps:normal;font-variant-numeric:normal;font-variant-east-asian:normal;text-align:center">Top-most</tspan><tspan x="71.376" y="-103.1222" style="-inkscape-font-specification:&quot;Fira Mono, Normal&quot;;font-variant-ligatures:normal;font-variant-caps:normal;font-variant-numeric:normal;font-variant-east-asian:normal;text-align:center">Fusion</tspan></text></g><g paint-order="markers stroke fill" transform="translate(-79.1103)"><rect width="1.7155" height="1.7155" x="96.5323" y="-77.13" fill="#75f0c2" ry="0"/><rect width="1.7155" height="1.7155" x="98.3843" y="-77.13" fill="#75f0c2" ry="0"/><rect width="1.7155" height="1.7155" x="100.2364" y="-77.13" fill="#75f0c2" ry="0"/><rect width="1.7155" height="1.7155" x="102.0885" y="-77.13" fill="#2ae8a1" ry="0"/><rect width="1.7155" height="1.7155" x="96.5323" y="-75.278" fill="#52ecb3" ry="0"/><rect width="1.7155" height="1.7155" x="98.3843" y="-75.278" fill="#75f0c2" ry="0"/><rect width="1.7155" height="1.7155" x="100.2364" y="-75.278" fill="#31e9a4" ry="0"/><rect width="1.7155" height="1.7155" x="102.0885" y="-75.278" fill="#75f0c2" ry="0"/><rect width="1.7155" height="1.7155" x="96.5323" y="-73.4258" fill="#75f0c2" ry="0"/><rect width="1.7155" height="1.7155" x="98.3843" y="-73.4258" fill="#75f0c2" ry="0"/><rect width="1.7155" height="1.7155" x="100.2364" y="-73.4258" fill="#75f0c2" ry="0"/><rect width="1.7155" height="1.7155" x="102.0885" y="-73.4258" fill="#75f0c2" ry="0"/><rect width="1.7155" height="1.7155" x="96.5323" y="-71.5738" fill="#75f0c2" ry="0"/><rect width="1.7155" height="1.7155" x="98.3843" y="-71.5738" fill="#8df3cd" ry="0"/><rect width="1.7155" height="1.7155" x="100.2364" y="-71.5738" fill="#75f0c2" ry="0"/><rect width="1.7155" height="1.7155" x="102.0885" y="-71.5738" fill="#18d790" ry="0"/></g><g paint-order="markers stroke fill" transform="translate(-86.5187)"><rect width="1.7155" height="1.7155" x="96.5323" y="-64.4089" fill="#6776bc" ry="0"/><rect width="1.7155" height="1.7155" x="98.3843" y="-64.4089" fill="#6776bc" ry="0"/><rect width="1.7155" height="1.7155" x="100.2364" y="-64.4089" fill="#6776bc" ry="0"/><rect width="1.7155" height="1.7155" x="102.0885" y="-64.4089" fill="#6776bc" ry="0"/><rect width="1.7155" height="1.7155" x="96.5323" y="-62.5569" fill="#6776bc" ry="0"/><rect width="1.7155" height="1.7155" x="98.3843" y="-62.5569" fill="#6776bc" ry="0"/><rect width="1.7155" height="1.7155" x="100.2364" y="-62.5569" fill="#4b5caa" ry="0"/><rect width="1.7155" height="1.7155" x="102.0885" y="-62.5569" fill="#6776bc" ry="0"/><rect width="1.7155" height="1.7155" x="96.5323" y="-60.7047" fill="#5869b5" ry="0"/><rect width="1.7155" height="1.7155" x="98.3843" y="-60.7047" fill="#6776bc" ry="0"/><rect width="1.7155" height="1.7155" x="100.2364" y="-60.7047" fill="#6776bc" ry="0"/><rect width="1.7155" height="1.7155" x="102.0885" y="-60.7047" fill="#6776bc" ry="0"/><rect width="1.7155" height="1.7155" x="96.5323" y="-58.8527" fill="#8a96cb" ry="0"/><rect width="1.7155" height="1.7155" x="98.3843" y="-58.8527" fill="#6776bc" ry="0"/><rect width="1.7155" height="1.7155" x="100.2364" y="-58.8527" fill="#6776bc" ry="0"/><rect width="1.7155" height="1.7155" x="102.0885" y="-58.8527" fill="#717fc1" ry="0"/><rect width="1.7155" height="1.7155" x="103.9407" y="-64.4089" fill="#5364b3" ry="0"/><rect width="1.7155" height="1.7155" x="105.7927" y="-64.4089" fill="#6776bc" ry="0"/><rect width="1.7155" height="1.7155" x="107.6447" y="-64.4089" fill="#7381c1" ry="0"/><rect width="1.7155" height="1.7155" x="109.4968" y="-64.4089" fill="#6776bc" ry="0"/><rect width="1.7155" height="1.7155" x="103.9407" y="-62.5569" fill="#6776bc" ry="0"/><rect width="1.7155" height="1.7155" x="105.7927" y="-62.5569" fill="#6776bc" ry="0"/><rect width="1.7155" height="1.7155" x="107.6447" y="-62.5569" fill="#4d5faf" ry="0"/><rect width="1.7155" height="1.7155" x="109.4968" y="-62.5569" fill="#6776bc" ry="0"/><rect width="1.7155" height="1.7155" x="103.9407" y="-60.7047" fill="#6776bc" ry="0"/><rect width="1.7155" height="1.7155" x="105.7927" y="-60.7047" fill="#6776bc" ry="0"/><rect width="1.7155" height="1.7155" x="107.6447" y="-60.7047" fill="#6776bc" ry="0"/><rect width="1.7155" height="1.7155" x="109.4968" y="-60.7047" fill="#6372ba" ry="0"/><rect width="1.7155" height="1.7155" x="103.9407" y="-58.8527" fill="#6776bc" ry="0"/><rect width="1.7155" height="1.7155" x="105.7927" y="-58.8527" fill="#4e60b1" ry="0"/><rect width="1.7155" height="1.7155" x="107.6447" y="-58.8527" fill="#8692c9" ry="0"/><rect width="1.7155" height="1.7155" x="109.4968" y="-58.8527" fill="#6776bc" ry="0"/><rect width="1.7155" height="1.7155" x="96.5323" y="-57.0006" fill="#6776bc" ry="0"/><rect width="1.7155" height="1.7155" x="98.3843" y="-57.0006" fill="#6776bc" ry="0"/><rect width="1.7155" height="1.7155" x="100.2364" y="-57.0006" fill="#6776bc" ry="0"/><rect width="1.7155" height="1.7155" x="102.0885" y="-57.0006" fill="#7986c4" ry="0"/><rect width="1.7155" height="1.7155" x="96.5323" y="-55.1486" fill="#5d6db7" ry="0"/><rect width="1.7155" height="1.7155" x="98.3843" y="-55.1486" fill="#6776bc" ry="0"/><rect width="1.7155" height="1.7155" x="100.2364" y="-55.1486" fill="#6776bc" ry="0"/><rect width="1.7155" height="1.7155" x="102.0885" y="-55.1486" fill="#6776bc" ry="0"/><rect width="1.7155" height="1.7155" x="96.5323" y="-53.2964" fill="#6776bc" ry="0"/><rect width="1.7155" height="1.7155" x="98.3843" y="-53.2964" fill="#4d5eaf" ry="0"/><rect width="1.7155" height="1.7155" x="100.2364" y="-53.2964" fill="#6776bc" ry="0"/><rect width="1.7155" height="1.7155" x="102.0885" y="-53.2964" fill="#6776bc" ry="0"/><rect width="1.7155" height="1.7155" x="96.5323" y="-51.4444" fill="#7a87c4" ry="0"/><rect width="1.7155" height="1.7155" x="98.3843" y="-51.4444" fill="#6776bc" ry="0"/><rect width="1.7155" height="1.7155" x="100.2364" y="-51.4444" fill="#6776bc" ry="0"/><rect width="1.7155" height="1.7155" x="102.0885" y="-51.4444" fill="#6776bc" ry="0"/><rect width="1.7155" height="1.7155" x="103.9407" y="-57.0006" fill="#6776bc" ry="0"/><rect width="1.7155" height="1.7155" x="105.7927" y="-57.0006" fill="#6776bc" ry="0"/><rect width="1.7155" height="1.7155" x="107.6447" y="-57.0006" fill="#6776bc" ry="0"/><rect width="1.7155" height="1.7155" x="109.4968" y="-57.0006" fill="#6776bc" ry="0"/><rect width="1.7155" height="1.7155" x="103.9407" y="-55.1486" fill="#6776bc" ry="0"/><rect width="1.7155" height="1.7155" x="105.7927" y="-55.1486" fill="#6776bc" ry="0"/><rect width="1.7155" height="1.7155" x="107.6447" y="-55.1486" fill="#8692c9" ry="0"/><rect width="1.7155" height="1.7155" x="109.4968" y="-55.1486" fill="#6776bc" ry="0"/><rect width="1.7155" height="1.7155" x="103.9407" y="-53.2964" fill="#6776bc" ry="0"/><rect width="1.7155" height="1.7155" x="105.7927" y="-53.2964" fill="#4d5eaf" ry="0"/><rect width="1.7155" height="1.7155" x="107.6447" y="-53.2964" fill="#6776bc" ry="0"/><rect width="1.7155" height="1.7155" x="109.4968" y="-53.2964" fill="#6776bc" ry="0"/><rect width="1.7155" height="1.7155" x="103.9407" y="-51.4444" fill="#5061b2" ry="0"/><rect width="1.7155" height="1.7155" x="105.7927" y="-51.4444" fill="#6776bc" ry="0"/><rect width="1.7155" height="1.7155" x="107.6447" y="-51.4444" fill="#6776bc" ry="0"/><rect width="1.7155" height="1.7155" x="109.4968" y="-51.4444" fill="#6776bc" ry="0"/></g><g paint-order="markers stroke fill" transform="translate(-75.4061)"><rect width="1.7155" height="1.7155" x="96.5323" y="-91.7032" fill="#ce9ef9" ry="0"/><rect width="1.7155" height="1.7155" x="98.3843" y="-91.7032" fill="#d9b5fa" ry="0"/><rect width="1.7155" height="1.7155" x="96.5323" y="-89.8512" fill="#d2a7f9" ry="0"/><rect width="1.7155" height="1.7155" x="98.3843" y="-89.8512" fill="#bb7af6" ry="0"/></g><rect width="1.7155" height="1.7155" x="22.9782" y="-107.7316" fill="#79d2f9" paint-order="markers stroke fill" ry="0"/><g paint-order="markers stroke fill"><rect width="1.2472" height="1.2472" x="35.718" y="-45.0515" fill="#919191" ry="0"/><rect width="1.2472" height="1.2472" x="37.0645" y="-45.0515" fill="#919191" ry="0"/><rect width="1.2472" height="1.2472" x="38.411" y="-45.0515" fill="#919191" ry="0"/><rect width="1.2472" height="1.2472" x="39.7575" y="-45.0515" fill="#919191" ry="0"/><rect width="1.2472" height="1.2472" x="35.718" y="-43.7051" fill="#919191" ry="0"/><rect width="1.2472" height="1.2472" x="37.0645" y="-43.7051" fill="#747474" ry="0"/><rect width="1.2472" height="1.2472" x="38.411" y="-43.7051" fill="#919191" ry="0"/><rect width="1.2472" height="1.2472" x="39.7575" y="-43.7051" fill="#919191" ry="0"/><rect width="1.2472" height="1.2472" x="35.718" y="-42.3585" fill="#919191" ry="0"/><rect width="1.2472" height="1.2472" x="37.0645" y="-42.3585" fill="#919191" ry="0"/><rect width="1.2472" height="1.2472" x="38.411" y="-42.3585" fill="#919191" ry="0"/><rect width="1.2472" height="1.2472" x="39.7575" y="-42.3585" fill="#919191" ry="0"/><rect width="1.2472" height="1.2472" x="35.718" y="-41.012" fill="#919191" ry="0"/><rect width="1.2472" height="1.2472" x="37.0645" y="-41.012" fill="#7d7d7d" ry="0"/><rect width="1.2472" height="1.2472" x="38.411" y="-41.012" fill="#7d7d7d" ry="0"/><rect width="1.2472" height="1.2472" x="39.7575" y="-41.012" fill="#919191" ry="0"/><rect width="1.2472" height="1.2472" x="41.1041" y="-45.0515" fill="#919191" ry="0"/><rect width="1.2472" height="1.2472" x="42.4506" y="-45.0515" fill="#919191" ry="0"/><rect width="1.2472" height="1.2472" x="43.7971" y="-45.0515" fill="#919191" ry="0"/><rect width="1.2472" height="1.2472" x="45.1436" y="-45.0515" fill="#919191" ry="0"/><rect width="1.2472" height="1.2472" x="41.1041" y="-43.7051" fill="#919191" ry="0"/><rect width="1.2472" height="1.2472" x="42.4506" y="-43.7051" fill="#7b7b7b" ry="0"/><rect width="1.2472" height="1.2472" x="43.7971" y="-43.7051" fill="#919191" ry="0"/><rect width="1.2472" height="1.2472" x="45.1436" y="-43.7051" fill="#919191" ry="0"/><rect width="1.2472" height="1.2472" x="41.1041" y="-42.3585" fill="#a6a6a6" ry="0"/><rect width="1.2472" height="1.2472" x="42.4506" y="-42.3585" fill="#919191" ry="0"/><rect width="1.2472" height="1.2472" x="43.7971" y="-42.3585" fill="#919191" ry="0"/><rect width="1.2472" height="1.2472" x="45.1436" y="-42.3585" fill="#919191" ry="0"/><rect width="1.2472" height="1.2472" x="41.1041" y="-41.012" fill="#919191" ry="0"/><rect width="1.2472" height="1.2472" x="42.4506" y="-41.012" fill="#919191" ry="0"/><rect width="1.2472" height="1.2472" x="43.7971" y="-41.012" fill="#919191" ry="0"/><rect width="1.2472" height="1.2472" x="45.1436" y="-41.012" fill="#9a9a9a" ry="0"/><rect width="1.2472" height="1.2472" x="35.718" y="-39.6654" fill="#919191" ry="0"/><rect width="1.2472" height="1.2472" x="37.0645" y="-39.6654" fill="#919191" ry="0"/><rect width="1.2472" height="1.2472" x="38.411" y="-39.6654" fill="gray" ry="0"/><rect width="1.2472" height="1.2472" x="39.7575" y="-39.6654" fill="#969696" ry="0"/><rect width="1.2472" height="1.2472" x="35.718" y="-38.319" fill="#919191" ry="0"/><rect width="1.2472" height="1.2472" x="37.0645" y="-38.319" fill="#8a8a8a" ry="0"/><rect width="1.2472" height="1.2472" x="38.411" y="-38.319" fill="#919191" ry="0"/><rect width="1.2472" height="1.2472" x="39.7575" y="-38.319" fill="#919191" ry="0"/><rect width="1.2472" height="1.2472" x="35.718" y="-36.9724" fill="#a4a4a4" ry="0"/><rect width="1.2472" height="1.2472" x="37.0645" y="-36.9724" fill="#919191" ry="0"/><rect width="1.2472" height="1.2472" x="38.411" y="-36.9724" fill="#919191" ry="0"/><rect width="1.2472" height="1.2472" x="39.7575" y="-36.9724" fill="#929292" ry="0"/><rect width="1.2472" height="1.2472" x="35.718" y="-35.6259" fill="#919191" ry="0"/><rect width="1.2472" height="1.2472" x="37.0645" y="-35.6259" fill="#919191" ry="0"/><rect width="1.2472" height="1.2472" x="38.411" y="-35.6259" fill="#919191" ry="0"/><rect width="1.2472" height="1.2472" x="39.7575" y="-35.6259" fill="#919191" ry="0"/><rect width="1.2472" height="1.2472" x="41.1041" y="-39.6654" fill="#919191" ry="0"/><rect width="1.2472" height="1.2472" x="42.4506" y="-39.6654" fill="#838383" ry="0"/><rect width="1.2472" height="1.2472" x="43.7971" y="-39.6654" fill="#919191" ry="0"/><rect width="1.2472" height="1.2472" x="45.1436" y="-39.6654" fill="#919191" ry="0"/><rect width="1.2472" height="1.2472" x="41.1041" y="-38.319" fill="#797979" ry="0"/><rect width="1.2472" height="1.2472" x="42.4506" y="-38.319" fill="#919191" ry="0"/><rect width="1.2472" height="1.2472" x="43.7971" y="-38.319" fill="#9f9f9f" ry="0"/><rect width="1.2472" height="1.2472" x="45.1436" y="-38.319" fill="#828282" ry="0"/><rect width="1.2472" height="1.2472" x="41.1041" y="-36.9724" fill="#919191" ry="0"/><rect width="1.2472" height="1.2472" x="42.4506" y="-36.9724" fill="#919191" ry="0"/><rect width="1.2472" height="1.2472" x="43.7971" y="-36.9724" fill="#919191" ry="0"/><rect width="1.2472" height="1.2472" x="45.1436" y="-36.9724" fill="#919191" ry="0"/><rect width="1.2472" height="1.2472" x="41.1041" y="-35.6259" fill="#919191" ry="0"/><rect width="1.2472" height="1.2472" x="42.4506" y="-35.6259" fill="#828282" ry="0"/><rect width="1.2472" height="1.2472" x="43.7971" y="-35.6259" fill="#a7a7a7" ry="0"/><rect width="1.2472" height="1.2472" x="45.1436" y="-35.6259" fill="#9b9b9b" ry="0"/><rect width="1.2472" height="1.2472" x="34.3787" y="-57.163" fill="#919191" ry="0" transform="matrix(0 -1 -1 0 0 0)"/><rect width="1.2472" height="1.2472" x="35.7251" y="-57.163" fill="#919191" ry="0" transform="matrix(0 -1 -1 0 0 0)"/><rect width="1.2472" height="1.2472" x="37.0717" y="-57.163" fill="#919191" ry="0" transform="matrix(0 -1 -1 0 0 0)"/><rect width="1.2472" height="1.2472" x="38.4182" y="-57.163" fill="#919191" ry="0" transform="matrix(0 -1 -1 0 0 0)"/><rect width="1.2472" height="1.2472" x="34.3787" y="-55.8166" fill="#919191" ry="0" transform="matrix(0 -1 -1 0 0 0)"/><rect width="1.2472" height="1.2472" x="35.7251" y="-55.8166" fill="#747474" ry="0" transform="matrix(0 -1 -1 0 0 0)"/><rect width="1.2472" height="1.2472" x="37.0717" y="-55.8166" fill="#919191" ry="0" transform="matrix(0 -1 -1 0 0 0)"/><rect width="1.2472" height="1.2472" x="38.4182" y="-55.8166" fill="#919191" ry="0" transform="matrix(0 -1 -1 0 0 0)"/><rect width="1.2472" height="1.2472" x="34.3787" y="-54.47" fill="#919191" ry="0" transform="matrix(0 -1 -1 0 0 0)"/><rect width="1.2472" height="1.2472" x="35.7251" y="-54.47" fill="#919191" ry="0" transform="matrix(0 -1 -1 0 0 0)"/><rect width="1.2472" height="1.2472" x="37.0717" y="-54.47" fill="#919191" ry="0" transform="matrix(0 -1 -1 0 0 0)"/><rect width="1.2472" height="1.2472" x="38.4182" y="-54.47" fill="#919191" ry="0" transform="matrix(0 -1 -1 0 0 0)"/><rect width="1.2472" height="1.2472" x="34.3787" y="-53.1235" fill="#919191" ry="0" transform="matrix(0 -1 -1 0 0 0)"/><rect width="1.2472" height="1.2472" x="35.7251" y="-53.1235" fill="#919191" ry="0" transform="matrix(0 -1 -1 0 0 0)"/><rect width="1.2472" height="1.2472" x="37.0717" y="-53.1235" fill="#7d7d7d" ry="0" transform="matrix(0 -1 -1 0 0 0)"/><rect width="1.2472" height="1.2472" x="38.4182" y="-53.1235" fill="#919191" ry="0" transform="matrix(0 -1 -1 0 0 0)"/><rect width="1.2472" height="1.2472" x="39.7648" y="-57.163" fill="#919191" ry="0" transform="matrix(0 -1 -1 0 0 0)"/><rect width="1.2472" height="1.2472" x="41.1112" y="-57.163" fill="#919191" ry="0" transform="matrix(0 -1 -1 0 0 0)"/><rect width="1.2472" height="1.2472" x="42.4578" y="-57.163" fill="#919191" ry="0" transform="matrix(0 -1 -1 0 0 0)"/><rect width="1.2472" height="1.2472" x="43.8043" y="-57.163" fill="#919191" ry="0" transform="matrix(0 -1 -1 0 0 0)"/><rect width="1.2472" height="1.2472" x="39.7648" y="-55.8166" fill="#919191" ry="0" transform="matrix(0 -1 -1 0 0 0)"/><rect width="1.2472" height="1.2472" x="41.1112" y="-55.8166" fill="#7b7b7b" ry="0" transform="matrix(0 -1 -1 0 0 0)"/><rect width="1.2472" height="1.2472" x="42.4578" y="-55.8166" fill="#919191" ry="0" transform="matrix(0 -1 -1 0 0 0)"/><rect width="1.2472" height="1.2472" x="43.8043" y="-55.8166" fill="#919191" ry="0" transform="matrix(0 -1 -1 0 0 0)"/><rect width="1.2472" height="1.2472" x="39.7648" y="-54.47" fill="#a6a6a6" ry="0" transform="matrix(0 -1 -1 0 0 0)"/><rect width="1.2472" height="1.2472" x="41.1112" y="-54.47" fill="#919191" ry="0" transform="matrix(0 -1 -1 0 0 0)"/><rect width="1.2472" height="1.2472" x="42.4578" y="-54.47" fill="#919191" ry="0" transform="matrix(0 -1 -1 0 0 0)"/><rect width="1.2472" height="1.2472" x="43.8043" y="-54.47" fill="#919191" ry="0" transform="matrix(0 -1 -1 0 0 0)"/><rect width="1.2472" height="1.2472" x="39.7648" y="-53.1235" fill="#919191" ry="0" transform="matrix(0 -1 -1 0 0 0)"/><rect width="1.2472" height="1.2472" x="41.1112" y="-53.1235" fill="#919191" ry="0" transform="matrix(0 -1 -1 0 0 0)"/><rect width="1.2472" height="1.2472" x="42.4578" y="-53.1235" fill="#919191" ry="0" transform="matrix(0 -1 -1 0 0 0)"/><rect width="1.2472" height="1.2472" x="43.8043" y="-53.1235" fill="#9a9a9a" ry="0" transform="matrix(0 -1 -1 0 0 0)"/><rect width="1.2472" height="1.2472" x="34.3787" y="-51.7769" fill="#919191" ry="0" transform="matrix(0 -1 -1 0 0 0)"/><rect width="1.2472" height="1.2472" x="35.7251" y="-51.7769" fill="#919191" ry="0" transform="matrix(0 -1 -1 0 0 0)"/><rect width="1.2472" height="1.2472" x="37.0717" y="-51.7769" fill="#919191" ry="0" transform="matrix(0 -1 -1 0 0 0)"/><rect width="1.2472" height="1.2472" x="38.4182" y="-51.7769" fill="#919191" ry="0" transform="matrix(0 -1 -1 0 0 0)"/><rect width="1.2472" height="1.2472" x="34.3787" y="-50.4305" fill="#919191" ry="0" transform="matrix(0 -1 -1 0 0 0)"/><rect width="1.2472" height="1.2472" x="35.7251" y="-50.4305" fill="#8a8a8a" ry="0" transform="matrix(0 -1 -1 0 0 0)"/><rect width="1.2472" height="1.2472" x="37.0717" y="-50.4305" fill="#919191" ry="0" transform="matrix(0 -1 -1 0 0 0)"/><rect width="1.2472" height="1.2472" x="38.4182" y="-50.4305" fill="#919191" ry="0" transform="matrix(0 -1 -1 0 0 0)"/><rect width="1.2472" height="1.2472" x="34.3787" y="-49.0839" fill="#a4a4a4" ry="0" transform="matrix(0 -1 -1 0 0 0)"/><rect width="1.2472" height="1.2472" x="35.7251" y="-49.0839" fill="#919191" ry="0" transform="matrix(0 -1 -1 0 0 0)"/><rect width="1.2472" height="1.2472" x="37.0717" y="-49.0839" fill="#919191" ry="0" transform="matrix(0 -1 -1 0 0 0)"/><rect width="1.2472" height="1.2472" x="38.4182" y="-49.0839" fill="#7d7d7d" ry="0" transform="matrix(0 -1 -1 0 0 0)"/><rect width="1.2472" height="1.2472" x="34.3787" y="-47.7374" fill="#919191" ry="0" transform="matrix(0 -1 -1 0 0 0)"/><rect width="1.2472" height="1.2472" x="35.7251" y="-47.7374" fill="#919191" ry="0" transform="matrix(0 -1 -1 0 0 0)"/><rect width="1.2472" height="1.2472" x="37.0717" y="-47.7374" fill="#919191" ry="0" transform="matrix(0 -1 -1 0 0 0)"/><rect width="1.2472" height="1.2472" x="38.4182" y="-47.7374" fill="#919191" ry="0" transform="matrix(0 -1 -1 0 0 0)"/><rect width="1.2472" height="1.2472" x="39.7648" y="-51.7769" fill="#919191" ry="0" transform="matrix(0 -1 -1 0 0 0)"/><rect width="1.2472" height="1.2472" x="41.1112" y="-51.7769" fill="#838383" ry="0" transform="matrix(0 -1 -1 0 0 0)"/><rect width="1.2472" height="1.2472" x="42.4578" y="-51.7769" fill="#919191" ry="0" transform="matrix(0 -1 -1 0 0 0)"/><rect width="1.2472" height="1.2472" x="43.8043" y="-51.7769" fill="#919191" ry="0" transform="matrix(0 -1 -1 0 0 0)"/><rect width="1.2472" height="1.2472" x="39.7648" y="-50.4305" fill="#919191" ry="0" transform="matrix(0 -1 -1 0 0 0)"/><rect width="1.2472" height="1.2472" x="41.1112" y="-50.4305" fill="#919191" ry="0" transform="matrix(0 -1 -1 0 0 0)"/><rect width="1.2472" height="1.2472" x="42.4578" y="-50.4305" fill="#9f9f9f" ry="0" transform="matrix(0 -1 -1 0 0 0)"/><rect width="1.2472" height="1.2472" x="43.8043" y="-50.4305" fill="#828282" ry="0" transform="matrix(0 -1 -1 0 0 0)"/><rect width="1.2472" height="1.2472" x="39.7648" y="-49.0839" fill="#919191" ry="0" transform="matrix(0 -1 -1 0 0 0)"/><rect width="1.2472" height="1.2472" x="41.1112" y="-49.0839" fill="#919191" ry="0" transform="matrix(0 -1 -1 0 0 0)"/><rect width="1.2472" height="1.2472" x="42.4578" y="-49.0839" fill="#919191" ry="0" transform="matrix(0 -1 -1 0 0 0)"/><rect width="1.2472" height="1.2472" x="43.8043" y="-49.0839" fill="#919191" ry="0" transform="matrix(0 -1 -1 0 0 0)"/><rect width="1.2472" height="1.2472" x="39.7648" y="-47.7374" fill="#919191" ry="0" transform="matrix(0 -1 -1 0 0 0)"/><rect width="1.2472" height="1.2472" x="41.1112" y="-47.7374" fill="#6e6e6e" ry="0" transform="matrix(0 -1 -1 0 0 0)"/><rect width="1.2472" height="1.2472" x="42.4578" y="-47.7374" fill="#919191" ry="0" transform="matrix(0 -1 -1 0 0 0)"/><rect width="1.2472" height="1.2472" x="43.8043" y="-47.7374" fill="#9b9b9b" ry="0" transform="matrix(0 -1 -1 0 0 0)"/><rect width="1.2472" height="1.2472" x="-46.3909" y="23.6065" fill="#919191" ry="0" transform="scale(-1)"/><rect width="1.2472" height="1.2472" x="-45.0444" y="23.6065" fill="#919191" ry="0" transform="scale(-1)"/><rect width="1.2472" height="1.2472" x="-43.6979" y="23.6065" fill="#919191" ry="0" transform="scale(-1)"/><rect width="1.2472" height="1.2472" x="-42.3514" y="23.6065" fill="#919191" ry="0" transform="scale(-1)"/><rect width="1.2472" height="1.2472" x="-46.3909" y="24.953" fill="#919191" ry="0" transform="scale(-1)"/><rect width="1.2472" height="1.2472" x="-45.0444" y="24.953" fill="#747474" ry="0" transform="scale(-1)"/><rect width="1.2472" height="1.2472" x="-43.6979" y="24.953" fill="#919191" ry="0" transform="scale(-1)"/><rect width="1.2472" height="1.2472" x="-42.3514" y="24.953" fill="#919191" ry="0" transform="scale(-1)"/><rect width="1.2472" height="1.2472" x="-46.3909" y="26.2995" fill="#919191" ry="0" transform="scale(-1)"/><rect width="1.2472" height="1.2472" x="-45.0444" y="26.2995" fill="#919191" ry="0" transform="scale(-1)"/><rect width="1.2472" height="1.2472" x="-43.6979" y="26.2995" fill="#919191" ry="0" transform="scale(-1)"/><rect width="1.2472" height="1.2472" x="-42.3514" y="26.2995" fill="#919191" ry="0" transform="scale(-1)"/><rect width="1.2472" height="1.2472" x="-46.3909" y="27.646" fill="#919191" ry="0" transform="scale(-1)"/><rect width="1.2472" height="1.2472" x="-45.0444" y="27.646" fill="#919191" ry="0" transform="scale(-1)"/><rect width="1.2472" height="1.2472" x="-43.6979" y="27.646" fill="#7d7d7d" ry="0" transform="scale(-1)"/><rect width="1.2472" height="1.2472" x="-42.3514" y="27.646" fill="#919191" ry="0" transform="scale(-1)"/><rect width="1.2472" height="1.2472" x="-41.0047" y="23.6065" fill="#919191" ry="0" transform="scale(-1)"/><rect width="1.2472" height="1.2472" x="-39.6583" y="23.6065" fill="#919191" ry="0" transform="scale(-1)"/><rect width="1.2472" height="1.2472" x="-38.3118" y="23.6065" fill="#919191" ry="0" transform="scale(-1)"/><rect width="1.2472" height="1.2472" x="-36.9653" y="23.6065" fill="#919191" ry="0" transform="scale(-1)"/><rect width="1.2472" height="1.2472" x="-41.0047" y="24.953" fill="#919191" ry="0" transform="scale(-1)"/><rect width="1.2472" height="1.2472" x="-39.6583" y="24.953" fill="#7b7b7b" ry="0" transform="scale(-1)"/><rect width="1.2472" height="1.2472" x="-38.3118" y="24.953" fill="#919191" ry="0" transform="scale(-1)"/><rect width="1.2472" height="1.2472" x="-36.9653" y="24.953" fill="#919191" ry="0" transform="scale(-1)"/><rect width="1.2472" height="1.2472" x="-41.0047" y="26.2995" fill="#a6a6a6" ry="0" transform="scale(-1)"/><rect width="1.2472" height="1.2472" x="-39.6583" y="26.2995" fill="#919191" ry="0" transform="scale(-1)"/><rect width="1.2472" height="1.2472" x="-38.3118" y="26.2995" fill="#919191" ry="0" transform="scale(-1)"/><rect width="1.2472" height="1.2472" x="-36.9653" y="26.2995" fill="#919191" ry="0" transform="scale(-1)"/><rect width="1.2472" height="1.2472" x="-41.0047" y="27.646" fill="#919191" ry="0" transform="scale(-1)"/><rect width="1.2472" height="1.2472" x="-39.6583" y="27.646" fill="#919191" ry="0" transform="scale(-1)"/><rect width="1.2472" height="1.2472" x="-38.3118" y="27.646" fill="#919191" ry="0" transform="scale(-1)"/><rect width="1.2472" height="1.2472" x="-36.9653" y="27.646" fill="#9a9a9a" ry="0" transform="scale(-1)"/><rect width="1.2472" height="1.2472" x="-46.3909" y="28.9926" fill="#919191" ry="0" transform="scale(-1)"/><rect width="1.2472" height="1.2472" x="-45.0444" y="28.9926" fill="#919191" ry="0" transform="scale(-1)"/><rect width="1.2472" height="1.2472" x="-43.6979" y="28.9926" fill="#919191" ry="0" transform="scale(-1)"/><rect width="1.2472" height="1.2472" x="-42.3514" y="28.9926" fill="#919191" ry="0" transform="scale(-1)"/><rect width="1.2472" height="1.2472" x="-46.3909" y="30.3391" fill="#919191" ry="0" transform="scale(-1)"/><rect width="1.2472" height="1.2472" x="-45.0444" y="30.3391" fill="#8a8a8a" ry="0" transform="scale(-1)"/><rect width="1.2472" height="1.2472" x="-43.6979" y="30.3391" fill="#7b7b7b" ry="0" transform="scale(-1)"/><rect width="1.2472" height="1.2472" x="-42.3514" y="30.3391" fill="#919191" ry="0" transform="scale(-1)"/><rect width="1.2472" height="1.2472" x="-46.3909" y="31.6856" fill="#a4a4a4" ry="0" transform="scale(-1)"/><rect width="1.2472" height="1.2472" x="-45.0444" y="31.6856" fill="#919191" ry="0" transform="scale(-1)"/><rect width="1.2472" height="1.2472" x="-43.6979" y="31.6856" fill="#919191" ry="0" transform="scale(-1)"/><rect width="1.2472" height="1.2472" x="-42.3514" y="31.6856" fill="#7d7d7d" ry="0" transform="scale(-1)"/><rect width="1.2472" height="1.2472" x="-46.3909" y="33.0321" fill="#919191" ry="0" transform="scale(-1)"/><rect width="1.2472" height="1.2472" x="-45.0444" y="33.0321" fill="#919191" ry="0" transform="scale(-1)"/><rect width="1.2472" height="1.2472" x="-43.6979" y="33.0321" fill="#919191" ry="0" transform="scale(-1)"/><rect width="1.2472" height="1.2472" x="-42.3514" y="33.0321" fill="#919191" ry="0" transform="scale(-1)"/><rect width="1.2472" height="1.2472" x="-41.0047" y="28.9926" fill="#919191" ry="0" transform="scale(-1)"/><rect width="1.2472" height="1.2472" x="-39.6583" y="28.9926" fill="#838383" ry="0" transform="scale(-1)"/><rect width="1.2472" height="1.2472" x="-38.3118" y="28.9926" fill="#919191" ry="0" transform="scale(-1)"/><rect width="1.2472" height="1.2472" x="-36.9653" y="28.9926" fill="#919191" ry="0" transform="scale(-1)"/><rect width="1.2472" height="1.2472" x="-41.0047" y="30.3391" fill="#919191" ry="0" transform="scale(-1)"/><rect width="1.2472" height="1.2472" x="-39.6583" y="30.3391" fill="#919191" ry="0" transform="scale(-1)"/><rect width="1.2472" height="1.2472" x="-38.3118" y="30.3391" fill="#9f9f9f" ry="0" transform="scale(-1)"/><rect width="1.2472" height="1.2472" x="-36.9653" y="30.3391" fill="#828282" ry="0" transform="scale(-1)"/><rect width="1.2472" height="1.2472" x="-41.0047" y="31.6856" fill="#919191" ry="0" transform="scale(-1)"/><rect width="1.2472" height="1.2472" x="-39.6583" y="31.6856" fill="#919191" ry="0" transform="scale(-1)"/><rect width="1.2472" height="1.2472" x="-38.3118" y="31.6856" fill="#919191" ry="0" transform="scale(-1)"/><rect width="1.2472" height="1.2472" x="-36.9653" y="31.6856" fill="#919191" ry="0" transform="scale(-1)"/><rect width="1.2472" height="1.2472" x="-41.0047" y="33.0321" fill="#919191" ry="0" transform="scale(-1)"/><rect width="1.2472" height="1.2472" x="-39.6583" y="33.0321" fill="#6e6e6e" ry="0" transform="scale(-1)"/><rect width="1.2472" height="1.2472" x="-38.3118" y="33.0321" fill="#919191" ry="0" transform="scale(-1)"/><rect width="1.2472" height="1.2472" x="-36.9653" y="33.0321" fill="#9b9b9b" ry="0" transform="scale(-1)"/><rect width="1.2472" height="1.2472" x="-34.2793" y="-57.1631" fill="#919191" ry="0" transform="rotate(90)"/><rect width="1.2472" height="1.2472" x="-32.9329" y="-57.1631" fill="#919191" ry="0" transform="rotate(90)"/><rect width="1.2472" height="1.2472" x="-31.5863" y="-57.1631" fill="#919191" ry="0" transform="rotate(90)"/><rect width="1.2472" height="1.2472" x="-30.2398" y="-57.1631" fill="#919191" ry="0" transform="rotate(90)"/><rect width="1.2472" height="1.2472" x="-34.2793" y="-55.8166" fill="#919191" ry="0" transform="rotate(90)"/><rect width="1.2472" height="1.2472" x="-32.9329" y="-55.8166" fill="#747474" ry="0" transform="rotate(90)"/><rect width="1.2472" height="1.2472" x="-31.5863" y="-55.8166" fill="#919191" ry="0" transform="rotate(90)"/><rect width="1.2472" height="1.2472" x="-30.2398" y="-55.8166" fill="#919191" ry="0" transform="rotate(90)"/><rect width="1.2472" height="1.2472" x="-34.2793" y="-54.47" fill="#919191" ry="0" transform="rotate(90)"/><rect width="1.2472" height="1.2472" x="-32.9329" y="-54.47" fill="#919191" ry="0" transform="rotate(90)"/><rect width="1.2472" height="1.2472" x="-31.5863" y="-54.47" fill="#919191" ry="0" transform="rotate(90)"/><rect width="1.2472" height="1.2472" x="-30.2398" y="-54.47" fill="#919191" ry="0" transform="rotate(90)"/><rect width="1.2472" height="1.2472" x="-34.2793" y="-53.1235" fill="#919191" ry="0" transform="rotate(90)"/><rect width="1.2472" height="1.2472" x="-32.9329" y="-53.1235" fill="#919191" ry="0" transform="rotate(90)"/><rect width="1.2472" height="1.2472" x="-31.5863" y="-53.1235" fill="#909090" ry="0" transform="rotate(90)"/><rect width="1.2472" height="1.2472" x="-30.2398" y="-53.1235" fill="#919191" ry="0" transform="rotate(90)"/><rect width="1.2472" height="1.2472" x="-28.8932" y="-57.1631" fill="#919191" ry="0" transform="rotate(90)"/><rect width="1.2472" height="1.2472" x="-27.5468" y="-57.1631" fill="#919191" ry="0" transform="rotate(90)"/><rect width="1.2472" height="1.2472" x="-26.2003" y="-57.1631" fill="#919191" ry="0" transform="rotate(90)"/><rect width="1.2472" height="1.2472" x="-24.8537" y="-57.1631" fill="#919191" ry="0" transform="rotate(90)"/><rect width="1.2472" height="1.2472" x="-28.8932" y="-55.8166" fill="#919191" ry="0" transform="rotate(90)"/><rect width="1.2472" height="1.2472" x="-27.5468" y="-55.8166" fill="#7b7b7b" ry="0" transform="rotate(90)"/><rect width="1.2472" height="1.2472" x="-26.2003" y="-55.8166" fill="#919191" ry="0" transform="rotate(90)"/><rect width="1.2472" height="1.2472" x="-24.8537" y="-55.8166" fill="#919191" ry="0" transform="rotate(90)"/><rect width="1.2472" height="1.2472" x="-28.8932" y="-54.47" fill="#a6a6a6" ry="0" transform="rotate(90)"/><rect width="1.2472" height="1.2472" x="-27.5468" y="-54.47" fill="#919191" ry="0" transform="rotate(90)"/><rect width="1.2472" height="1.2472" x="-26.2003" y="-54.47" fill="#919191" ry="0" transform="rotate(90)"/><rect width="1.2472" height="1.2472" x="-24.8537" y="-54.47" fill="#919191" ry="0" transform="rotate(90)"/><rect width="1.2472" height="1.2472" x="-28.8932" y="-53.1235" fill="#919191" ry="0" transform="rotate(90)"/><rect width="1.2472" height="1.2472" x="-27.5468" y="-53.1235" fill="#919191" ry="0" transform="rotate(90)"/><rect width="1.2472" height="1.2472" x="-26.2003" y="-53.1235" fill="#919191" ry="0" transform="rotate(90)"/><rect width="1.2472" height="1.2472" x="-24.8537" y="-53.1235" fill="#9a9a9a" ry="0" transform="rotate(90)"/><rect width="1.2472" height="1.2472" x="-34.2793" y="-51.777" fill="#919191" ry="0" transform="rotate(90)"/><rect width="1.2472" height="1.2472" x="-32.9329" y="-51.777" fill="#919191" ry="0" transform="rotate(90)"/><rect width="1.2472" height="1.2472" x="-31.5863" y="-51.777" fill="#919191" ry="0" transform="rotate(90)"/><rect width="1.2472" height="1.2472" x="-30.2398" y="-51.777" fill="#828282" ry="0" transform="rotate(90)"/><rect width="1.2472" height="1.2472" x="-34.2793" y="-50.4305" fill="#919191" ry="0" transform="rotate(90)"/><rect width="1.2472" height="1.2472" x="-32.9329" y="-50.4305" fill="#8a8a8a" ry="0" transform="rotate(90)"/><rect width="1.2472" height="1.2472" x="-31.5863" y="-50.4305" fill="#919191" ry="0" transform="rotate(90)"/><rect width="1.2472" height="1.2472" x="-30.2398" y="-50.4305" fill="#919191" ry="0" transform="rotate(90)"/><rect width="1.2472" height="1.2472" x="-34.2793" y="-49.0839" fill="#909090" ry="0" transform="rotate(90)"/><rect width="1.2472" height="1.2472" x="-32.9329" y="-49.0839" fill="#777" ry="0" transform="rotate(90)"/><rect width="1.2472" height="1.2472" x="-31.5863" y="-49.0839" fill="#919191" ry="0" transform="rotate(90)"/><rect width="1.2472" height="1.2472" x="-30.2398" y="-49.0839" fill="#7d7d7d" ry="0" transform="rotate(90)"/><rect width="1.2472" height="1.2472" x="-34.2793" y="-47.7374" fill="#919191" ry="0" transform="rotate(90)"/><rect width="1.2472" height="1.2472" x="-32.9329" y="-47.7374" fill="#919191" ry="0" transform="rotate(90)"/><rect width="1.2472" height="1.2472" x="-31.5863" y="-47.7374" fill="#919191" ry="0" transform="rotate(90)"/><rect width="1.2472" height="1.2472" x="-30.2398" y="-47.7374" fill="#919191" ry="0" transform="rotate(90)"/><rect width="1.2472" height="1.2472" x="-28.8932" y="-51.777" fill="#919191" ry="0" transform="rotate(90)"/><rect width="1.2472" height="1.2472" x="-27.5468" y="-51.777" fill="#838383" ry="0" transform="rotate(90)"/><rect width="1.2472" height="1.2472" x="-26.2003" y="-51.777" fill="#919191" ry="0" transform="rotate(90)"/><rect width="1.2472" height="1.2472" x="-24.8537" y="-51.777" fill="#919191" ry="0" transform="rotate(90)"/><rect width="1.2472" height="1.2472" x="-28.8932" y="-50.4305" fill="#919191" ry="0" transform="rotate(90)"/><rect width="1.2472" height="1.2472" x="-27.5468" y="-50.4305" fill="#919191" ry="0" transform="rotate(90)"/><rect width="1.2472" height="1.2472" x="-26.2003" y="-50.4305" fill="#9f9f9f" ry="0" transform="rotate(90)"/><rect width="1.2472" height="1.2472" x="-24.8537" y="-50.4305" fill="#828282" ry="0" transform="rotate(90)"/><rect width="1.2472" height="1.2472" x="-28.8932" y="-49.0839" fill="#919191" ry="0" transform="rotate(90)"/><rect width="1.2472" height="1.2472" x="-27.5468" y="-49.0839" fill="#919191" ry="0" transform="rotate(90)"/><rect width="1.2472" height="1.2472" x="-26.2003" y="-49.0839" fill="#919191" ry="0" transform="rotate(90)"/><rect width="1.2472" height="1.2472" x="-24.8537" y="-49.0839" fill="#919191" ry="0" transform="rotate(90)"/><rect width="1.2472" height="1.2472" x="-28.8932" y="-47.7374" fill="#919191" ry="0" transform="rotate(90)"/><rect width="1.2472" height="1.2472" x="-27.5468" y="-47.7374" fill="#6e6e6e" ry="0" transform="rotate(90)"/><rect width="1.2472" height="1.2472" x="-26.2003" y="-47.7374" fill="#919191" ry="0" transform="rotate(90)"/><rect width="1.2472" height="1.2472" x="-24.8537" y="-47.7374" fill="#9b9b9b" ry="0" transform="rotate(90)"/></g></g></svg>