<svg xmlns="http://www.w3.org/2000/svg" width="442.9526" height="279.4915" viewBox="0 0 117.1979 73.9488"><g transform="translate(157.0807 123.1117)"><text xml:space="preserve" x="-146.2134" y="-82.4223" fill="#f9f9f9" stroke="#1a1a1a" stroke-linecap="round" stroke-linejoin="bevel" stroke-width="1.0583" font-family="Fira Mono" font-size="3.1538" font-weight="700" paint-order="markers stroke fill" style="-inkscape-font-specification:&quot;Fira Mono, Bold&quot;;font-variant-ligatures:normal;font-variant-caps:normal;font-variant-numeric:normal;font-variant-east-asian:normal;text-align:center" text-anchor="middle"><tspan x="-146.2134" y="-82.4223" style="-inkscape-font-specification:&quot;Fira Mono, Bold&quot;;font-variant-ligatures:normal;font-variant-caps:normal;font-variant-numeric:normal;font-variant-east-asian:normal;text-align:center">Transformer</tspan><tspan x="-146.2134" y="-78.4801" style="-inkscape-font-specification:&quot;Fira Mono, Bold&quot;;font-variant-ligatures:normal;font-variant-caps:normal;font-variant-numeric:normal;font-variant-east-asian:normal;text-align:center">tokens</tspan></text><g fill="#6776bc" transform="matrix(.37 0 0 .37 -160.5628 -140.6999)"><rect width="31.4262" height="3.9283" x="71.237" y="211.8328" ry="0"/><rect width="31.4262" height="3.9283" x="71.237" y="216.2127" ry="0"/><rect width="31.4262" height="3.9283" x="71.237" y="220.5927" ry="0"/><rect width="31.4262" height="3.9283" x="71.237" y="224.9727" ry="0"/><rect width="31.4262" height="3.9283" x="71.237" y="229.3527" ry="0"/><rect width="31.4262" height="3.9283" x="71.237" y="233.7327" ry="0"/></g><g fill="#75f0c2" transform="matrix(.37 0 0 .37 -160.5628 -157.1251)"><rect width="31.4262" height="3.9283" x="71.237" y="211.8328" ry="0"/><rect width="31.4262" height="3.9283" x="71.237" y="216.2127" ry="0"/><rect width="31.4262" height="3.9283" x="71.237" y="220.5927" ry="0"/><rect width="31.4262" height="3.9283" x="71.237" y="224.9727" ry="0"/><rect width="31.4262" height="3.9283" x="71.237" y="229.3527" ry="0"/><rect width="31.4262" height="3.9283" x="71.237" y="233.7327" ry="0"/></g><g fill="#d2a7f9" transform="matrix(.37 0 0 .37 -160.5628 -173.5504)"><rect width="31.4262" height="3.9283" x="71.237" y="211.8328" ry="0"/><rect width="31.4262" height="3.9283" x="71.237" y="216.2127" ry="0"/><rect width="31.4262" height="3.9283" x="71.237" y="220.5927" ry="0"/><rect width="31.4262" height="3.9283" x="71.237" y="224.9727" ry="0"/><rect width="31.4262" height="3.9283" x="71.237" y="229.3527" ry="0"/><rect width="31.4262" height="3.9283" x="71.237" y="233.7327" ry="0"/></g><g fill="#79d2f9" stroke-width="1.0001" transform="matrix(.37 0 0 .37 -160.5628 -190.5049)"><rect width="31.4262" height="3.9283" x="71.237" y="211.8328" ry="0"/><rect width="31.4262" height="3.9283" x="71.237" y="216.2127" ry="0"/><rect width="31.4262" height="3.9283" x="71.237" y="220.5927" ry="0"/><rect width="31.4262" height="3.9283" x="71.237" y="224.9727" ry="0"/><rect width="31.4262" height="3.9283" x="71.237" y="229.3527" ry="0"/><rect width="31.4262" height="3.9283" x="71.237" y="233.7327" ry="0"/></g><path fill="#f9f9f9" stroke="#1a1a1a" stroke-linecap="round" stroke-width=".7937" d="M-121.345-56.8432h6.635v.7788l1.4278-.919-1.4278-.9189v.6943h-6.635zM-121.345-73.2685h6.635v.7789l1.4278-.919-1.4278-.919v.6944h-6.635zM-121.345-89.6937h6.635v.7788l1.4278-.919-1.4278-.919v.6944h-6.635zM-121.345-106.6482h6.635v.7788l1.4278-.919-1.4278-.9189v.6944h-6.635zM-80.07-106.6482h6.635v.7788l1.4278-.919-1.4279-.9189v.6944h-6.635zM-80.07-89.6937h6.635v.7788l1.4278-.919-1.4279-.919v.6944h-6.635zM-80.07-73.2684h6.635v.7788l1.4278-.919-1.4279-.919v.6944h-6.635zM-80.07-56.8432h6.635v.7788l1.4278-.919-1.4279-.9189v.6944h-6.635z" paint-order="markers stroke fill"/><text xml:space="preserve" x="-96.4376" y="-120.1888" fill="#f9f9f9" stroke="#1a1a1a" stroke-linecap="round" stroke-linejoin="bevel" stroke-width="1.0583" font-family="Fira Mono" font-size="3.1538" font-weight="700" paint-order="markers stroke fill" style="-inkscape-font-specification:&quot;Fira Mono, Bold&quot;;font-variant-ligatures:normal;font-variant-caps:normal;font-variant-numeric:normal;font-variant-east-asian:normal;text-align:center" text-anchor="middle"><tspan x="-96.4376" y="-120.1888" style="-inkscape-font-specification:&quot;Fira Mono, Bold&quot;;font-variant-ligatures:normal;font-variant-caps:normal;font-variant-numeric:normal;font-variant-east-asian:normal">Reassembly Model</tspan></text><text xml:space="preserve" x="-53.8912" y="-82.5658" fill="#f9f9f9" stroke="#1a1a1a" stroke-linecap="round" stroke-linejoin="bevel" stroke-width="1.0583" font-family="Fira Mono" font-size="3.1538" font-weight="700" paint-order="markers stroke fill" style="-inkscape-font-specification:&quot;Fira Mono, Bold&quot;;font-variant-ligatures:normal;font-variant-caps:normal;font-variant-numeric:normal;font-variant-east-asian:normal;text-align:center" text-anchor="middle"><tspan x="-53.8912" y="-82.5658" style="-inkscape-font-specification:&quot;Fira Mono, Bold&quot;;font-variant-ligatures:normal;font-variant-caps:normal;font-variant-numeric:normal;font-variant-east-asian:normal">Output &apos;images&apos;</tspan><tspan x="-53.8912" y="-78.6236" style="-inkscape-font-specification:&quot;Fira Mono, Bold&quot;;font-variant-ligatures:normal;font-variant-caps:normal;font-variant-numeric:normal;font-variant-east-asian:normal">(x4)</tspan></text><g transform="translate(-18.0761 -4.077)"><rect width="30.6607" height="15.6409" x="-93.7139" y="-60.7269" fill="#f05" ry="2.8812"/><text xml:space="preserve" x="-78.3835" y="-54.0307" stroke-linecap="square" stroke-linejoin="bevel" stroke-width=".5292" font-family="Fira Mono" font-size="3.1538" font-weight="400" paint-order="markers stroke fill" style="-inkscape-font-specification:&quot;Fira Mono, Normal&quot;;font-variant-ligatures:normal;font-variant-caps:normal;font-variant-numeric:normal;font-variant-east-asian:normal;text-align:center" text-anchor="middle"><tspan x="-78.3835" y="-54.0307" style="-inkscape-font-specification:&quot;Fira Mono, Normal&quot;;font-variant-ligatures:normal;font-variant-caps:normal;font-variant-numeric:normal;font-variant-east-asian:normal;text-align:center">Reassembly</tspan><tspan x="-78.3835" y="-50.0885" style="-inkscape-font-specification:&quot;Fira Mono, Normal&quot;;font-variant-ligatures:normal;font-variant-caps:normal;font-variant-numeric:normal;font-variant-east-asian:normal;text-align:center">(upscale 4x)</tspan></text></g><g transform="translate(-19.6015 -3.7468)"><rect width="30.6607" height="15.6409" x="-92.1886" y="-77.4822" fill="#f05" ry="2.8812"/><text xml:space="preserve" x="-76.8582" y="-70.7861" stroke-linecap="square" stroke-linejoin="bevel" stroke-width=".5292" font-family="Fira Mono" font-size="3.1538" font-weight="400" paint-order="markers stroke fill" style="-inkscape-font-specification:&quot;Fira Mono, Normal&quot;;font-variant-ligatures:normal;font-variant-caps:normal;font-variant-numeric:normal;font-variant-east-asian:normal;text-align:center" text-anchor="middle"><tspan x="-76.8582" y="-70.7861" style="-inkscape-font-specification:&quot;Fira Mono, Normal&quot;;font-variant-ligatures:normal;font-variant-caps:normal;font-variant-numeric:normal;font-variant-east-asian:normal;text-align:center">Reassembly</tspan><tspan x="-76.8582" y="-66.8439" style="-inkscape-font-specification:&quot;Fira Mono, Normal&quot;;font-variant-ligatures:normal;font-variant-caps:normal;font-variant-numeric:normal;font-variant-east-asian:normal;text-align:center">(upscale 2x)</tspan></text></g><g transform="translate(-25.5378 2.9891)"><rect width="30.6607" height="15.6409" x="-86.2522" y="-100.6435" fill="#f05" ry="2.8812"/><text xml:space="preserve" x="-70.9219" y="-93.9473" stroke-linecap="square" stroke-linejoin="bevel" stroke-width=".5292" font-family="Fira Mono" font-size="3.1538" font-weight="400" paint-order="markers stroke fill" style="-inkscape-font-specification:&quot;Fira Mono, Normal&quot;;font-variant-ligatures:normal;font-variant-caps:normal;font-variant-numeric:normal;font-variant-east-asian:normal;text-align:center" text-anchor="middle"><tspan x="-70.9219" y="-93.9473" style="-inkscape-font-specification:&quot;Fira Mono, Normal&quot;;font-variant-ligatures:normal;font-variant-caps:normal;font-variant-numeric:normal;font-variant-east-asian:normal;text-align:center">Reassembly</tspan><tspan x="-70.9219" y="-90.0051" style="-inkscape-font-specification:&quot;Fira Mono, Normal&quot;;font-variant-ligatures:normal;font-variant-caps:normal;font-variant-numeric:normal;font-variant-east-asian:normal;text-align:center">(no scaling)</tspan></text></g><g transform="translate(-24.3417 4.8558)"><rect width="30.6607" height="15.6409" x="-87.4484" y="-119.4646" fill="#f05" ry="2.8812"/><text xml:space="preserve" x="-72.118" y="-112.7685" stroke-linecap="square" stroke-linejoin="bevel" stroke-width=".5292" font-family="Fira Mono" font-size="3.1538" font-weight="400" paint-order="markers stroke fill" style="-inkscape-font-specification:&quot;Fira Mono, Normal&quot;;font-variant-ligatures:normal;font-variant-caps:normal;font-variant-numeric:normal;font-variant-east-asian:normal;text-align:center" text-anchor="middle"><tspan x="-72.118" y="-112.7685" style="-inkscape-font-specification:&quot;Fira Mono, Normal&quot;;font-variant-ligatures:normal;font-variant-caps:normal;font-variant-numeric:normal;font-variant-east-asian:normal;text-align:center">Reassembly</tspan><tspan x="-72.118" y="-108.8263" style="-inkscape-font-specification:&quot;Fira Mono, Normal&quot;;font-variant-ligatures:normal;font-variant-caps:normal;font-variant-numeric:normal;font-variant-east-asian:normal;text-align:center">(downscale 2x)</tspan></text></g><rect width="1.7155" height="1.7155" x="-70.5534" y="-77.0444" fill="#75f0c2" paint-order="markers stroke fill" ry="0"/><rect width="1.7155" height="1.7155" x="-68.7014" y="-77.0444" fill="#75f0c2" paint-order="markers stroke fill" ry="0"/><rect width="1.7155" height="1.7155" x="-66.8493" y="-77.0444" fill="#75f0c2" paint-order="markers stroke fill" ry="0"/><rect width="1.7155" height="1.7155" x="-64.9973" y="-77.0444" fill="#2ae8a1" paint-order="markers stroke fill" ry="0"/><rect width="1.7155" height="1.7155" x="-70.5534" y="-75.1924" fill="#52ecb3" paint-order="markers stroke fill" ry="0"/><rect width="1.7155" height="1.7155" x="-68.7014" y="-75.1924" fill="#75f0c2" paint-order="markers stroke fill" ry="0"/><rect width="1.7155" height="1.7155" x="-66.8493" y="-75.1924" fill="#31e9a4" paint-order="markers stroke fill" ry="0"/><rect width="1.7155" height="1.7155" x="-64.9973" y="-75.1924" fill="#75f0c2" paint-order="markers stroke fill" ry="0"/><rect width="1.7155" height="1.7155" x="-70.5534" y="-73.3402" fill="#75f0c2" paint-order="markers stroke fill" ry="0"/><rect width="1.7155" height="1.7155" x="-68.7014" y="-73.3402" fill="#75f0c2" paint-order="markers stroke fill" ry="0"/><rect width="1.7155" height="1.7155" x="-66.8493" y="-73.3402" fill="#75f0c2" paint-order="markers stroke fill" ry="0"/><rect width="1.7155" height="1.7155" x="-64.9973" y="-73.3402" fill="#75f0c2" paint-order="markers stroke fill" ry="0"/><rect width="1.7155" height="1.7155" x="-70.5534" y="-71.4882" fill="#75f0c2" paint-order="markers stroke fill" ry="0"/><rect width="1.7155" height="1.7155" x="-68.7014" y="-71.4882" fill="#8df3cd" paint-order="markers stroke fill" ry="0"/><rect width="1.7155" height="1.7155" x="-66.8493" y="-71.4882" fill="#75f0c2" paint-order="markers stroke fill" ry="0"/><rect width="1.7155" height="1.7155" x="-64.9973" y="-71.4882" fill="#18d790" paint-order="markers stroke fill" ry="0"/><rect width="1.7155" height="1.7155" x="-70.5534" y="-64.3233" fill="#6776bc" paint-order="markers stroke fill" ry="0"/><rect width="1.7155" height="1.7155" x="-68.7014" y="-64.3233" fill="#6776bc" paint-order="markers stroke fill" ry="0"/><rect width="1.7155" height="1.7155" x="-66.8493" y="-64.3233" fill="#6776bc" paint-order="markers stroke fill" ry="0"/><rect width="1.7155" height="1.7155" x="-64.9973" y="-64.3233" fill="#6776bc" paint-order="markers stroke fill" ry="0"/><rect width="1.7155" height="1.7155" x="-70.5534" y="-62.4713" fill="#6776bc" paint-order="markers stroke fill" ry="0"/><rect width="1.7155" height="1.7155" x="-68.7014" y="-62.4713" fill="#6776bc" paint-order="markers stroke fill" ry="0"/><rect width="1.7155" height="1.7155" x="-66.8493" y="-62.4713" fill="#4b5caa" paint-order="markers stroke fill" ry="0"/><rect width="1.7155" height="1.7155" x="-64.9973" y="-62.4713" fill="#6776bc" paint-order="markers stroke fill" ry="0"/><rect width="1.7155" height="1.7155" x="-70.5534" y="-60.6191" fill="#5869b5" paint-order="markers stroke fill" ry="0"/><rect width="1.7155" height="1.7155" x="-68.7014" y="-60.6191" fill="#6776bc" paint-order="markers stroke fill" ry="0"/><rect width="1.7155" height="1.7155" x="-66.8493" y="-60.6191" fill="#6776bc" paint-order="markers stroke fill" ry="0"/><rect width="1.7155" height="1.7155" x="-64.9973" y="-60.6191" fill="#6776bc" paint-order="markers stroke fill" ry="0"/><rect width="1.7155" height="1.7155" x="-70.5534" y="-58.7671" fill="#8a96cb" paint-order="markers stroke fill" ry="0"/><rect width="1.7155" height="1.7155" x="-68.7014" y="-58.7671" fill="#6776bc" paint-order="markers stroke fill" ry="0"/><rect width="1.7155" height="1.7155" x="-66.8493" y="-58.7671" fill="#6776bc" paint-order="markers stroke fill" ry="0"/><rect width="1.7155" height="1.7155" x="-64.9973" y="-58.7671" fill="#717fc1" paint-order="markers stroke fill" ry="0"/><rect width="1.7155" height="1.7155" x="-63.145" y="-64.3233" fill="#5364b3" paint-order="markers stroke fill" ry="0"/><rect width="1.7155" height="1.7155" x="-61.2931" y="-64.3233" fill="#6776bc" paint-order="markers stroke fill" ry="0"/><rect width="1.7155" height="1.7155" x="-59.441" y="-64.3233" fill="#7381c1" paint-order="markers stroke fill" ry="0"/><rect width="1.7155" height="1.7155" x="-57.5889" y="-64.3233" fill="#6776bc" paint-order="markers stroke fill" ry="0"/><rect width="1.7155" height="1.7155" x="-63.145" y="-62.4713" fill="#6776bc" paint-order="markers stroke fill" ry="0"/><rect width="1.7155" height="1.7155" x="-61.2931" y="-62.4713" fill="#6776bc" paint-order="markers stroke fill" ry="0"/><rect width="1.7155" height="1.7155" x="-59.441" y="-62.4713" fill="#4d5faf" paint-order="markers stroke fill" ry="0"/><rect width="1.7155" height="1.7155" x="-57.5889" y="-62.4713" fill="#6776bc" paint-order="markers stroke fill" ry="0"/><rect width="1.7155" height="1.7155" x="-63.145" y="-60.6191" fill="#6776bc" paint-order="markers stroke fill" ry="0"/><rect width="1.7155" height="1.7155" x="-61.2931" y="-60.6191" fill="#6776bc" paint-order="markers stroke fill" ry="0"/><rect width="1.7155" height="1.7155" x="-59.441" y="-60.6191" fill="#6776bc" paint-order="markers stroke fill" ry="0"/><rect width="1.7155" height="1.7155" x="-57.5889" y="-60.6191" fill="#6372ba" paint-order="markers stroke fill" ry="0"/><rect width="1.7155" height="1.7155" x="-63.145" y="-58.7671" fill="#6776bc" paint-order="markers stroke fill" ry="0"/><rect width="1.7155" height="1.7155" x="-61.2931" y="-58.7671" fill="#4e60b1" paint-order="markers stroke fill" ry="0"/><rect width="1.7155" height="1.7155" x="-59.441" y="-58.7671" fill="#8692c9" paint-order="markers stroke fill" ry="0"/><rect width="1.7155" height="1.7155" x="-57.5889" y="-58.7671" fill="#6776bc" paint-order="markers stroke fill" ry="0"/><rect width="1.7155" height="1.7155" x="-70.5534" y="-56.915" fill="#6776bc" paint-order="markers stroke fill" ry="0"/><rect width="1.7155" height="1.7155" x="-68.7014" y="-56.915" fill="#6776bc" paint-order="markers stroke fill" ry="0"/><rect width="1.7155" height="1.7155" x="-66.8493" y="-56.915" fill="#6776bc" paint-order="markers stroke fill" ry="0"/><rect width="1.7155" height="1.7155" x="-64.9973" y="-56.915" fill="#7986c4" paint-order="markers stroke fill" ry="0"/><rect width="1.7155" height="1.7155" x="-70.5534" y="-55.063" fill="#5d6db7" paint-order="markers stroke fill" ry="0"/><rect width="1.7155" height="1.7155" x="-68.7014" y="-55.063" fill="#6776bc" paint-order="markers stroke fill" ry="0"/><rect width="1.7155" height="1.7155" x="-66.8493" y="-55.063" fill="#6776bc" paint-order="markers stroke fill" ry="0"/><rect width="1.7155" height="1.7155" x="-64.9973" y="-55.063" fill="#6776bc" paint-order="markers stroke fill" ry="0"/><rect width="1.7155" height="1.7155" x="-70.5534" y="-53.2108" fill="#6776bc" paint-order="markers stroke fill" ry="0"/><rect width="1.7155" height="1.7155" x="-68.7014" y="-53.2108" fill="#4d5eaf" paint-order="markers stroke fill" ry="0"/><rect width="1.7155" height="1.7155" x="-66.8493" y="-53.2108" fill="#6776bc" paint-order="markers stroke fill" ry="0"/><rect width="1.7155" height="1.7155" x="-64.9973" y="-53.2108" fill="#6776bc" paint-order="markers stroke fill" ry="0"/><rect width="1.7155" height="1.7155" x="-70.5534" y="-51.3588" fill="#7a87c4" paint-order="markers stroke fill" ry="0"/><rect width="1.7155" height="1.7155" x="-68.7014" y="-51.3588" fill="#6776bc" paint-order="markers stroke fill" ry="0"/><rect width="1.7155" height="1.7155" x="-66.8493" y="-51.3588" fill="#6776bc" paint-order="markers stroke fill" ry="0"/><rect width="1.7155" height="1.7155" x="-64.9973" y="-51.3588" fill="#6776bc" paint-order="markers stroke fill" ry="0"/><rect width="1.7155" height="1.7155" x="-63.145" y="-56.915" fill="#6776bc" paint-order="markers stroke fill" ry="0"/><rect width="1.7155" height="1.7155" x="-61.2931" y="-56.915" fill="#6776bc" paint-order="markers stroke fill" ry="0"/><rect width="1.7155" height="1.7155" x="-59.441" y="-56.915" fill="#6776bc" paint-order="markers stroke fill" ry="0"/><rect width="1.7155" height="1.7155" x="-57.5889" y="-56.915" fill="#6776bc" paint-order="markers stroke fill" ry="0"/><rect width="1.7155" height="1.7155" x="-63.145" y="-55.063" fill="#6776bc" paint-order="markers stroke fill" ry="0"/><rect width="1.7155" height="1.7155" x="-61.2931" y="-55.063" fill="#6776bc" paint-order="markers stroke fill" ry="0"/><rect width="1.7155" height="1.7155" x="-59.441" y="-55.063" fill="#8692c9" paint-order="markers stroke fill" ry="0"/><rect width="1.7155" height="1.7155" x="-57.5889" y="-55.063" fill="#6776bc" paint-order="markers stroke fill" ry="0"/><rect width="1.7155" height="1.7155" x="-63.145" y="-53.2108" fill="#6776bc" paint-order="markers stroke fill" ry="0"/><rect width="1.7155" height="1.7155" x="-61.2931" y="-53.2108" fill="#4d5eaf" paint-order="markers stroke fill" ry="0"/><rect width="1.7155" height="1.7155" x="-59.441" y="-53.2108" fill="#6776bc" paint-order="markers stroke fill" ry="0"/><rect width="1.7155" height="1.7155" x="-57.5889" y="-53.2108" fill="#6776bc" paint-order="markers stroke fill" ry="0"/><rect width="1.7155" height="1.7155" x="-63.145" y="-51.3588" fill="#5061b2" paint-order="markers stroke fill" ry="0"/><rect width="1.7155" height="1.7155" x="-61.2931" y="-51.3588" fill="#6776bc" paint-order="markers stroke fill" ry="0"/><rect width="1.7155" height="1.7155" x="-59.441" y="-51.3588" fill="#6776bc" paint-order="markers stroke fill" ry="0"/><rect width="1.7155" height="1.7155" x="-57.5889" y="-51.3588" fill="#6776bc" paint-order="markers stroke fill" ry="0"/><rect width="1.7155" height="1.7155" x="-70.5534" y="-91.6176" fill="#ce9ef9" paint-order="markers stroke fill" ry="0"/><rect width="1.7155" height="1.7155" x="-68.7014" y="-91.6176" fill="#d9b5fa" paint-order="markers stroke fill" ry="0"/><rect width="1.7155" height="1.7155" x="-70.5534" y="-89.7656" fill="#d2a7f9" paint-order="markers stroke fill" ry="0"/><rect width="1.7155" height="1.7155" x="-68.7014" y="-89.7656" fill="#bb7af6" paint-order="markers stroke fill" ry="0"/><rect width="1.7155" height="1.7155" x="-70.5534" y="-107.6461" fill="#79d2f9" paint-order="markers stroke fill" ry="0"/></g></svg>