<svg xmlns="http://www.w3.org/2000/svg" width="570.2826" height="183.3271" viewBox="0 0 150.8873 48.5053"><g transform="translate(94.3539 208.858)"><path fill="#f9f9f9" stroke="#1a1a1a" stroke-linecap="square" stroke-width=".7937" d="m40.076-181.158-4.3565-2.803v2.4837H-83.1698l-3.8602-2.4837v2.4837h-6.927v.6389h6.927v2.4837l3.8598-2.4837H35.7195v2.4837z" paint-order="markers stroke fill"/><rect width="113.8494" height="42.3182" x="-81.3435" y="-202.9957" fill="none" stroke="red" stroke-width=".6496" ry="7.7955"/><g transform="matrix(.3725 0 0 .3725 -133.8953 -202.6844)"><rect width="65.3304" height="40.5895" x="151.201" y="38.8432" fill="#ffcb00" ry="0"/><text xml:space="preserve" x="183.7943" y="56.1195" stroke-width="1.5875" font-family="Fira Mono" font-size="8.4667" font-weight="400" style="-inkscape-font-specification:&quot;Fira Mono, Normal&quot;;font-variant-ligatures:normal;font-variant-caps:normal;font-variant-numeric:normal;font-variant-east-asian:normal;text-align:center" text-anchor="middle"><tspan x="183.7943" y="56.1195">Readout</tspan><tspan x="183.7943" y="66.7029">Projection</tspan></text></g><g transform="matrix(.3725 0 0 .3725 -165.1829 -204.5495)"><rect width="65.3304" height="40.5895" x="309.2563" y="43.5946" fill="#ffcb00" ry="0"/><text xml:space="preserve" x="341.7183" y="61.7219" stroke-width="1.5875" font-family="Fira Mono" font-size="8.4667" font-weight="400" style="-inkscape-font-specification:&quot;Fira Mono, Normal&quot;;font-variant-ligatures:normal;font-variant-caps:normal;font-variant-numeric:normal;font-variant-east-asian:normal;text-align:center" text-anchor="middle"><tspan x="341.7183" y="61.7219">Token</tspan><tspan x="341.7183" y="72.3052">1D-to-2D</tspan></text></g><g transform="matrix(.3725 0 0 .3725 -186.9459 -207.7469)"><rect width="65.3304" height="40.5895" x="441.7418" y="51.482" fill="#ffcb00" ry="0"/><text xml:space="preserve" x="474.1699" y="68.86" stroke-width="1.5875" font-family="Fira Mono" font-size="8.4667" font-weight="400" style="-inkscape-font-specification:&quot;Fira Mono, Normal&quot;;font-variant-ligatures:normal;font-variant-caps:normal;font-variant-numeric:normal;font-variant-east-asian:normal;text-align:center" text-anchor="middle"><tspan x="474.1699" y="68.86">Spatial</tspan><tspan x="474.1699" y="79.4433">Resizing</tspan></text></g><g transform="matrix(.3725 0 0 .3725 -210.8987 -207.214)"><rect width="65.3304" height="40.5895" x="580.1061" y="50.5865" fill="#ffcb00" ry="0"/><text xml:space="preserve" x="612.6994" y="67.9644" stroke-width="1.5875" font-family="Fira Mono" font-size="8.4667" font-weight="400" style="-inkscape-font-specification:&quot;Fira Mono, Normal&quot;;font-variant-ligatures:normal;font-variant-caps:normal;font-variant-numeric:normal;font-variant-east-asian:normal;text-align:center" text-anchor="middle"><tspan x="612.6994" y="67.9644">Fusion</tspan><tspan x="612.6994" y="78.5478">Projection</tspan></text></g><text xml:space="preserve" x="-44.3176" y="-168.3735" fill="#b3b3b3" stroke="#000" stroke-linecap="square" stroke-linejoin="bevel" stroke-width=".5292" font-family="Fira Mono" font-size="3.5278" font-weight="700" paint-order="markers stroke fill" style="-inkscape-font-specification:&quot;Fira Mono, Bold&quot;;font-variant-ligatures:normal;font-variant-caps:normal;font-variant-numeric:normal;font-variant-east-asian:normal;text-align:end" text-anchor="end"><tspan x="-44.3176" y="-168.3735" style="-inkscape-font-specification:&quot;Fira Mono, Bold&quot;;font-variant-ligatures:normal;font-variant-caps:normal;font-variant-numeric:normal;font-variant-east-asian:normal">(N-<tspan style="-inkscape-font-specification:&quot;Fira Mono, Bold&quot;;font-variant-ligatures:normal;font-variant-caps:normal;font-variant-numeric:normal;font-variant-east-asian:normal;text-align:center" text-anchor="middle">1</tspan>)xF</tspan></text><text xml:space="preserve" x="-24.2359" y="-168.3909" fill="#b3b3b3" stroke="#000" stroke-linecap="square" stroke-linejoin="bevel" stroke-width=".5292" font-family="Fira Mono" font-size="3.5278" font-weight="700" paint-order="markers stroke fill" style="-inkscape-font-specification:&quot;Fira Mono, Bold&quot;;font-variant-ligatures:normal;font-variant-caps:normal;font-variant-numeric:normal;font-variant-east-asian:normal;text-align:center" text-anchor="middle"><tspan x="-24.2359" y="-168.3909" style="-inkscape-font-specification:&quot;Fira Mono, Bold&quot;;font-variant-ligatures:normal;font-variant-caps:normal;font-variant-numeric:normal;font-variant-east-asian:normal;text-align:center">FxHxW</tspan></text><text xml:space="preserve" x="15.19" y="-168.3735" fill="#b3b3b3" stroke="#000" stroke-linecap="square" stroke-linejoin="bevel" stroke-width=".5292" font-family="Fira Mono" font-size="3.5278" font-weight="700" paint-order="markers stroke fill" style="-inkscape-font-specification:&quot;Fira Mono, Bold&quot;;font-variant-ligatures:normal;font-variant-caps:normal;font-variant-numeric:normal;font-variant-east-asian:normal;text-align:end" text-anchor="end"><tspan x="15.19" y="-168.3735" style="-inkscape-font-specification:&quot;Fira Mono, Bold&quot;;font-variant-ligatures:normal;font-variant-caps:normal;font-variant-numeric:normal;font-variant-east-asian:normal">Dx(RH)<tspan style="-inkscape-font-specification:&quot;Fira Mono, Bold&quot;;font-variant-ligatures:normal;font-variant-caps:normal;font-variant-numeric:normal;font-variant-east-asian:normal;text-align:center" text-anchor="middle">x</tspan>(RW)</tspan></text><text xml:space="preserve" x="44.9834" y="-173.136" fill="#b3b3b3" stroke="#000" stroke-linecap="square" stroke-linejoin="bevel" stroke-width=".5292" font-family="Fira Mono" font-size="3.5278" font-weight="700" paint-order="markers stroke fill" style="-inkscape-font-specification:&quot;Fira Mono, Bold&quot;;font-variant-ligatures:normal;font-variant-caps:normal;font-variant-numeric:normal;font-variant-east-asian:normal;text-align:center" text-anchor="middle"><tspan x="44.9834" y="-173.136" style="-inkscape-font-specification:&quot;Fira Mono, Bold&quot;;font-variant-ligatures:normal;font-variant-caps:normal;font-variant-numeric:normal;font-variant-east-asian:normal;text-align:center">Cx(RH)x(RW)</tspan></text><text xml:space="preserve" x="-85.9969" y="-173.6825" fill="#b3b3b3" stroke="#000" stroke-linecap="square" stroke-linejoin="bevel" stroke-width=".5292" font-family="Fira Mono" font-size="3.5278" font-weight="700" paint-order="markers stroke fill" style="-inkscape-font-specification:&quot;Fira Mono, Bold&quot;;font-variant-ligatures:normal;font-variant-caps:normal;font-variant-numeric:normal;font-variant-east-asian:normal;text-align:end" text-anchor="end"><tspan x="-85.9969" y="-173.6825" style="-inkscape-font-specification:&quot;Fira Mono, Bold&quot;;font-variant-ligatures:normal;font-variant-caps:normal;font-variant-numeric:normal;font-variant-east-asian:normal">N<tspan style="-inkscape-font-specification:&quot;Fira Mono, Bold&quot;;font-variant-ligatures:normal;font-variant-caps:normal;font-variant-numeric:normal;font-variant-east-asian:normal;text-align:center" text-anchor="middle">x</tspan>F</tspan></text><text xml:space="preserve" x="-81.3221" y="-205.9351" fill="#f9f9f9" stroke="#1a1a1a" stroke-linecap="round" stroke-linejoin="bevel" stroke-width="1.0583" font-family="Fira Mono" font-size="3.1538" font-weight="700" paint-order="markers stroke fill" style="-inkscape-font-specification:&quot;Fira Mono, Bold&quot;;font-variant-ligatures:normal;font-variant-caps:normal;font-variant-numeric:normal;font-variant-east-asian:normal;text-align:start"><tspan x="-81.3221" y="-205.9351" style="-inkscape-font-specification:&quot;Fira Mono, Bold&quot;;font-variant-ligatures:normal;font-variant-caps:normal;font-variant-numeric:normal;font-variant-east-asian:normal;text-align:start">Reassembly Block</tspan></text><path fill="#b3b3b3" stroke="#000" stroke-linecap="square" stroke-linejoin="bevel" stroke-width=".5292" d="M-51.613-179.7386a.3788.3788 0 0 0-.3788.3788.3788.3788 0 0 0 .2387.3514v5.9371h.2801v-5.9376a.3788.3788 0 0 0 .2388-.3509.3788.3788 0 0 0-.3788-.3787zM-24.0401-179.7386a.3788.3788 0 0 0-.3788.3788.3788.3788 0 0 0 .2387.3514v5.9371h.2801v-5.9376a.3788.3788 0 0 0 .2388-.3509.3788.3788 0 0 0-.3788-.3787zM3.5606-179.7386a.3788.3788 0 0 0-.3787.3788.3788.3788 0 0 0 .2387.3514v5.9371h.28v-5.9376a.3788.3788 0 0 0 .2388-.3509.3788.3788 0 0 0-.3788-.3787z" paint-order="markers stroke fill"/></g></svg>