<svg xmlns="http://www.w3.org/2000/svg" xml:space="preserve" width="210.009" height="126.88" viewBox="0 0 55.565 33.57"><g paint-order="markers stroke fill"><path fill="#f9f9f9" stroke="#1a1a1a" stroke-linecap="round" stroke-width=".794" d="m21.755 19.112-1.427.919 1.427.919v-.695h5.93v.78l1.427-.92-1.428-.919v.695h-5.929z"/><g transform="matrix(2.278 0 0 2.637 648.938 233.802)"><rect width="1.715" height="1.715" x="-283.317" y="-83.547" fill="#625056" ry="0"/><rect width="1.715" height="1.715" x="-281.465" y="-83.547" fill="#d57f7f" ry="0"/><rect width="1.715" height="1.715" x="-279.613" y="-83.547" fill="#ffb395" ry="0"/><rect width="1.715" height="1.715" x="-283.317" y="-81.695" fill="#dcc28e" ry="0"/><rect width="1.715" height="1.715" x="-281.465" y="-81.695" fill="#ff9865" ry="0"/><rect width="1.715" height="1.715" x="-279.613" y="-81.695" fill="#b0d654" ry="0"/><rect width="1.715" height="1.715" x="-283.317" y="-79.843" fill="#54c5ec" ry="0"/><rect width="1.715" height="1.715" x="-281.465" y="-79.843" fill="#5696a2" ry="0"/><rect width="1.715" height="1.715" x="-279.613" y="-79.843" fill="#b488cc" ry="0"/></g><text xml:space="preserve" x="-293.42" y="-85.688" fill="#f9f9f9" stroke="#1a1a1a" stroke-linecap="round" stroke-linejoin="bevel" stroke-width="1.058" font-family="Fira Mono" font-size="3.154" font-weight="700" style="-inkscape-font-specification:&quot;Fira Mono, Bold&quot;;font-variant-ligatures:normal;font-variant-caps:normal;font-variant-numeric:normal;font-variant-east-asian:normal;text-align:center" text-anchor="middle" transform="translate(303.174 88.769)"><tspan x="-293.42" y="-85.688" style="-inkscape-font-specification:&quot;Fira Mono, Bold&quot;;font-variant-ligatures:normal;font-variant-caps:normal;font-variant-numeric:normal;font-variant-east-asian:normal">Image-like</tspan></text><g transform="matrix(2.278 0 0 2.637 658.543 227.517)"><rect width="8.008" height="1.033" x="-274.698" y="-83.346" fill="#625056" ry="0"/><rect width="8.008" height="1.033" x="-274.698" y="-82.252" fill="#d57f7f" ry="0"/><rect width="8.008" height="1.033" x="-274.698" y="-81.158" fill="#ffb395" ry="0"/><rect width="8.008" height="1.033" x="-274.698" y="-80.064" fill="#dcc28e" ry="0"/><rect width="8.008" height="1.033" x="-274.698" y="-78.971" fill="#ff9865" ry="0"/><rect width="8.008" height="1.033" x="-274.698" y="-77.877" fill="#b0d654" ry="0"/><rect width="8.008" height="1.033" x="-274.698" y="-76.783" fill="#54c5ec" ry="0"/><rect width="8.008" height="1.033" x="-274.698" y="-75.689" fill="#5696a2" ry="0"/><rect width="8.008" height="1.033" x="-274.698" y="-74.595" fill="#b488cc" ry="0"/></g><text xml:space="preserve" x="-261.179" y="-85.444" fill="#f9f9f9" stroke="#1a1a1a" stroke-linecap="round" stroke-linejoin="bevel" stroke-width="1.058" font-family="Fira Mono" font-size="3.154" font-weight="700" style="-inkscape-font-specification:&quot;Fira Mono, Bold&quot;;font-variant-ligatures:normal;font-variant-caps:normal;font-variant-numeric:normal;font-variant-east-asian:normal;text-align:center" text-anchor="middle" transform="translate(303.174 88.769)"><tspan x="-261.179" y="-85.444" style="-inkscape-font-specification:&quot;Fira Mono, Bold&quot;;font-variant-ligatures:normal;font-variant-caps:normal;font-variant-numeric:normal;font-variant-east-asian:normal">Rows of tokens</tspan></text></g></svg>