<svg xmlns="http://www.w3.org/2000/svg" width="615.5236" height="351.3754" viewBox="0 0 162.8573 92.9681"><g transform="translate(213.9627 -19.288)"><rect width="20.1929" height="11.1207" x="-189.9649" y="76.836" fill="#f05" ry="2.0486"/><rect width="75.7607" height="60.983" x="-127.1843" y="35.1033" fill="none" stroke="red" stroke-width=".6362" ry="11.2337"/><rect width="20.1929" height="11.1207" x="-189.9649" y="60.6856" fill="#f05" ry="2.0486"/><rect width="20.1929" height="11.1207" x="-189.9649" y="44.5351" fill="#f05" ry="2.0486"/><rect width="20.1929" height="11.1207" x="-189.9649" y="28.3847" fill="#f05" ry="2.0486"/><rect width="11.706" height="1.4632" x="-185.7718" y="97.0966" fill="#234884" ry="0"/><rect width="11.706" height="1.4632" x="-185.7718" y="95.3905" fill="#ae2da2" ry="0"/><rect width="11.706" height="1.4632" x="-185.7718" y="98.7289" fill="#234884" ry="0"/><rect width="11.706" height="1.4632" x="-185.7718" y="100.3612" fill="#234884" ry="0"/><rect width="11.706" height="1.4632" x="-185.7718" y="101.9936" fill="#234884" ry="0"/><rect width="11.706" height="1.4632" x="-185.7718" y="103.6259" fill="#234884" ry="0"/><text xml:space="preserve" x="-204.1678" y="95.6116" fill="#f9f9f9" stroke="#1a1a1a" stroke-linecap="round" stroke-linejoin="bevel" stroke-width="1.0583" font-family="Fira Mono" font-size="3.1538" font-weight="700" paint-order="markers stroke fill" style="-inkscape-font-specification:&quot;Fira Mono, Bold&quot;;font-variant-ligatures:normal;font-variant-caps:normal;font-variant-numeric:normal;font-variant-east-asian:normal;text-align:center" text-anchor="middle"><tspan x="-204.1678" y="95.6116" style="-inkscape-font-specification:&quot;Fira Mono, Bold&quot;;font-variant-ligatures:normal;font-variant-caps:normal;font-variant-numeric:normal;font-variant-east-asian:normal">Pre-pended</tspan><tspan x="-204.1678" y="99.5538" style="-inkscape-font-specification:&quot;Fira Mono, Bold&quot;;font-variant-ligatures:normal;font-variant-caps:normal;font-variant-numeric:normal;font-variant-east-asian:normal">Readout</tspan><tspan x="-204.1678" y="103.4961" style="-inkscape-font-specification:&quot;Fira Mono, Bold&quot;;font-variant-ligatures:normal;font-variant-caps:normal;font-variant-numeric:normal;font-variant-east-asian:normal">token</tspan></text><path fill="#f9f9f9" stroke="#1a1a1a" stroke-linecap="round" stroke-width=".7937" d="m-187.8944 93.9715-.2173.5797c-1.1768-.3198-2.1294-.4456-2.8989-.4454-.8404.0003-1.4633.1509-1.9251.3623s-.7556.4833-.9318.7085c-.1763.2252-.2445.4285-.2445.4285l.5638.1783s.0228-.0844.1463-.2422c.1235-.1578.3382-.364.713-.5355.7124-.3262 2.026-.5265 4.369.1018l-.2193.585 1.6596-.3594z" color="#000" paint-order="markers stroke fill"/><g fill="#6776bc" transform="matrix(.372 0 0 .372 -186.8403 -8.9702)"><rect width="31.4262" height="3.9283" x="71.237" y="211.8328" ry="0"/><rect width="31.4262" height="3.9283" x="71.237" y="216.2127" ry="0"/><rect width="31.4262" height="3.9283" x="71.237" y="220.5927" ry="0"/><rect width="31.4262" height="3.9283" x="71.237" y="224.9727" ry="0"/><rect width="31.4262" height="3.9283" x="71.237" y="229.3527" ry="0"/><rect width="31.4262" height="3.9283" x="71.237" y="233.7327" ry="0"/></g><g fill="#75f0c2" transform="matrix(.372 0 0 .372 -186.8403 -25.3955)"><rect width="31.4262" height="3.9283" x="71.237" y="211.8328" ry="0"/><rect width="31.4262" height="3.9283" x="71.237" y="216.2127" ry="0"/><rect width="31.4262" height="3.9283" x="71.237" y="220.5927" ry="0"/><rect width="31.4262" height="3.9283" x="71.237" y="224.9727" ry="0"/><rect width="31.4262" height="3.9283" x="71.237" y="229.3527" ry="0"/><rect width="31.4262" height="3.9283" x="71.237" y="233.7327" ry="0"/></g><g fill="#d2a7f9" transform="matrix(.372 0 0 .372 -186.8403 -41.8208)"><rect width="31.4262" height="3.9283" x="71.237" y="211.8328" ry="0"/><rect width="31.4262" height="3.9283" x="71.237" y="216.2127" ry="0"/><rect width="31.4262" height="3.9283" x="71.237" y="220.5927" ry="0"/><rect width="31.4262" height="3.9283" x="71.237" y="224.9727" ry="0"/><rect width="31.4262" height="3.9283" x="71.237" y="229.3527" ry="0"/><rect width="31.4262" height="3.9283" x="71.237" y="233.7327" ry="0"/></g><g fill="#79d2f9" stroke-width="1.0001" transform="matrix(.372 0 0 .372 -186.8403 -58.7752)"><rect width="31.4262" height="3.9283" x="71.237" y="211.8328" ry="0"/><rect width="31.4262" height="3.9283" x="71.237" y="216.2127" ry="0"/><rect width="31.4262" height="3.9283" x="71.237" y="220.5927" ry="0"/><rect width="31.4262" height="3.9283" x="71.237" y="224.9727" ry="0"/><rect width="31.4262" height="3.9283" x="71.237" y="229.3527" ry="0"/><rect width="31.4262" height="3.9283" x="71.237" y="233.7327" ry="0"/></g><text xml:space="preserve" x="-186.4283" y="83.1659" stroke-width=".0986" font-family="Fira Mono" font-size="3.1538" font-weight="400" style="-inkscape-font-specification:&quot;Fira Mono, Normal&quot;;font-variant-ligatures:normal;font-variant-caps:normal;font-variant-numeric:normal;font-variant-east-asian:normal"><tspan x="-186.4283" y="83.1659" style="-inkscape-font-specification:&quot;Fira Mono, Normal&quot;;font-variant-ligatures:normal;font-variant-caps:normal;font-variant-numeric:normal;font-variant-east-asian:normal">Stage 1</tspan></text><text xml:space="preserve" x="-186.3904" y="67.0155" stroke-width=".0986" font-family="Fira Mono" font-size="3.1538" font-weight="400" style="-inkscape-font-specification:&quot;Fira Mono, Normal&quot;;font-variant-ligatures:normal;font-variant-caps:normal;font-variant-numeric:normal;font-variant-east-asian:normal"><tspan x="-186.3904" y="67.0155" style="-inkscape-font-specification:&quot;Fira Mono, Normal&quot;;font-variant-ligatures:normal;font-variant-caps:normal;font-variant-numeric:normal;font-variant-east-asian:normal">Stage 2</tspan></text><text xml:space="preserve" x="-186.4046" y="50.865" stroke-width=".0986" font-family="Fira Mono" font-size="3.1538" font-weight="400" style="-inkscape-font-specification:&quot;Fira Mono, Normal&quot;;font-variant-ligatures:normal;font-variant-caps:normal;font-variant-numeric:normal;font-variant-east-asian:normal"><tspan x="-186.4046" y="50.865" style="-inkscape-font-specification:&quot;Fira Mono, Normal&quot;;font-variant-ligatures:normal;font-variant-caps:normal;font-variant-numeric:normal;font-variant-east-asian:normal">Stage 3</tspan></text><text xml:space="preserve" x="-186.4456" y="34.7146" stroke-width=".0986" font-family="Fira Mono" font-size="3.1538" font-weight="400" style="-inkscape-font-specification:&quot;Fira Mono, Normal&quot;;font-variant-ligatures:normal;font-variant-caps:normal;font-variant-numeric:normal;font-variant-east-asian:normal"><tspan x="-186.4456" y="34.7146" style="-inkscape-font-specification:&quot;Fira Mono, Normal&quot;;font-variant-ligatures:normal;font-variant-caps:normal;font-variant-numeric:normal;font-variant-east-asian:normal">Stage 4</tspan></text><text xml:space="preserve" x="-179.9251" y="107.7311" fill="#f9f9f9" stroke="#1a1a1a" stroke-linecap="round" stroke-linejoin="bevel" stroke-width="1.0583" font-family="Fira Mono" font-size="3.1538" font-weight="700" paint-order="markers stroke fill" style="-inkscape-font-specification:&quot;Fira Mono, Bold&quot;;font-variant-ligatures:normal;font-variant-caps:normal;font-variant-numeric:normal;font-variant-east-asian:normal;text-align:center" text-anchor="middle"><tspan x="-179.9251" y="107.7311" style="-inkscape-font-specification:&quot;Fira Mono, Bold&quot;;font-variant-ligatures:normal;font-variant-caps:normal;font-variant-numeric:normal;font-variant-east-asian:normal;text-align:center">Image patch</tspan><tspan x="-179.9251" y="111.6733" style="-inkscape-font-specification:&quot;Fira Mono, Bold&quot;;font-variant-ligatures:normal;font-variant-caps:normal;font-variant-numeric:normal;font-variant-east-asian:normal;text-align:center">tokens</tspan></text><text xml:space="preserve" x="-153.9665" y="84.1781" fill="#f9f9f9" stroke="#1a1a1a" stroke-linecap="round" stroke-linejoin="bevel" stroke-width="1.0583" font-family="Fira Mono" font-size="3.1538" font-weight="700" paint-order="markers stroke fill" style="-inkscape-font-specification:&quot;Fira Mono, Bold&quot;;font-variant-ligatures:normal;font-variant-caps:normal;font-variant-numeric:normal;font-variant-east-asian:normal;text-align:center" text-anchor="middle"><tspan x="-153.9665" y="84.1781" style="-inkscape-font-specification:&quot;Fira Mono, Bold&quot;;font-variant-ligatures:normal;font-variant-caps:normal;font-variant-numeric:normal;font-variant-east-asian:normal;text-align:center">Output tokens</tspan><tspan x="-153.9665" y="88.1204" style="-inkscape-font-specification:&quot;Fira Mono, Bold&quot;;font-variant-ligatures:normal;font-variant-caps:normal;font-variant-numeric:normal;font-variant-east-asian:normal;text-align:center">(x4)</tspan></text><path fill="#f9f9f9" stroke="#1a1a1a" stroke-linecap="round" stroke-width=".7937" d="m-179.6078 72.5267-.919 1.428h.7157v2.3411h.3648v-1.28h17.2183v.7788l1.4279-.919-1.428-.919v.6944h-17.2182v-.6962h.7572zM-179.6078 56.3763l-.919 1.428h.7157v2.3198h.3648v-1.28h17.2183v.7816l1.4279-.9187-1.428-.919v.6912h-17.2182v-.6748h.7572zM-179.6078 88.6964l-.919 1.428h.7365v4.6743h.3648v-4.6742h.7364z" paint-order="markers stroke fill"/><path fill="#f9f9f9" stroke="#1a1a1a" stroke-linecap="square" stroke-width=".7937" d="M-89.851 59.3993v37.6913l-2.4736 3.844h2.4736v5.4398h.6594v-5.4398h2.4735l-2.4735-3.844V59.3993ZM-89.5213 28.9115l-2.8033 4.3564h2.4736v21.0716h.6594V33.2679h2.4735z" paint-order="markers stroke fill"/><path fill="#f9f9f9" stroke="#1a1a1a" stroke-linecap="round" stroke-width=".7937" d="m-179.6317 40.2257-.919 1.428h.7396v2.419h.3648v-1.2801h17.2183v.7493l1.4279-.919-1.428-.9187v.7236h-17.2182v-.774h.7334zM-162.228 24.0362v.6891l-17.8002.0004-.0002 2.6288h.3648V25.089h17.4356v.785l1.4279-.9188z" paint-order="markers stroke fill"/><text xml:space="preserve" x="-127.5624" y="33.0792" fill="#f9f9f9" stroke="#1a1a1a" stroke-linecap="round" stroke-linejoin="bevel" stroke-width="1.0583" font-family="Fira Mono" font-size="3.1538" font-weight="700" paint-order="markers stroke fill" style="-inkscape-font-specification:&quot;Fira Mono, Bold&quot;;font-variant-ligatures:normal;font-variant-caps:normal;font-variant-numeric:normal;font-variant-east-asian:normal;text-align:start"><tspan x="-127.5624" y="33.0792" style="-inkscape-font-specification:&quot;Fira Mono, Bold&quot;;font-variant-ligatures:normal;font-variant-caps:normal;font-variant-numeric:normal;font-variant-east-asian:normal;text-align:start">Transformer Stage</tspan></text><text xml:space="preserve" x="-195.8953" y="22.2109" fill="#f9f9f9" stroke="#1a1a1a" stroke-linecap="round" stroke-linejoin="bevel" stroke-width="1.0583" font-family="Fira Mono" font-size="3.1538" font-weight="700" paint-order="markers stroke fill" style="-inkscape-font-specification:&quot;Fira Mono, Bold&quot;;font-variant-ligatures:normal;font-variant-caps:normal;font-variant-numeric:normal;font-variant-east-asian:normal;text-align:center" text-anchor="middle"><tspan x="-195.8953" y="22.2109" style="-inkscape-font-specification:&quot;Fira Mono, Bold&quot;;font-variant-ligatures:normal;font-variant-caps:normal;font-variant-numeric:normal;font-variant-east-asian:normal">Image Encoder</tspan></text><g transform="matrix(.372 0 0 .372 -215.1112 16.0806)"><rect width="121.1246" height="21.2761" x="276.5984" y="167.4927" fill="#ffcb00" ry="0"/><text xml:space="preserve" x="337.1057" y="181.2549" stroke-width="1.5875" font-family="Fira Mono" font-size="8.4667" font-weight="400" style="-inkscape-font-specification:&quot;Fira Mono, Normal&quot;;font-variant-ligatures:normal;font-variant-caps:normal;font-variant-numeric:normal;font-variant-east-asian:normal;text-align:center" text-anchor="middle"><tspan x="337.1057" y="181.2549">Block 1</tspan></text></g><g transform="matrix(.372 0 0 .372 -212.009 19.4115)"><rect width="121.1246" height="21.2761" x="268.2704" y="134.0003" fill="#ffcb00" ry="0"/><text xml:space="preserve" x="328.7777" y="147.7626" stroke-width="1.5875" font-family="Fira Mono" font-size="8.4667" font-weight="400" style="-inkscape-font-specification:&quot;Fira Mono, Normal&quot;;font-variant-ligatures:normal;font-variant-caps:normal;font-variant-numeric:normal;font-variant-east-asian:normal;text-align:center" text-anchor="middle"><tspan x="328.7777" y="147.7626">Block 2</tspan></text></g><g transform="matrix(.372 0 0 .372 -211.9788 20.8552)"><rect width="121.1246" height="21.2761" x="268.1892" y="105.5745" fill="#ffcb00" ry="0"/><text xml:space="preserve" x="328.6965" y="119.3367" stroke-width="1.5875" font-family="Fira Mono" font-size="8.4667" font-weight="400" style="-inkscape-font-specification:&quot;Fira Mono, Normal&quot;;font-variant-ligatures:normal;font-variant-caps:normal;font-variant-numeric:normal;font-variant-east-asian:normal;text-align:center" text-anchor="middle"><tspan x="328.6965" y="119.3367">Block 3</tspan></text></g><g transform="matrix(.372 0 0 .372 -213.0751 20.393)"><rect width="121.1246" height="21.2761" x="271.1324" y="62.0925" fill="#ffcb00" ry="0"/><text xml:space="preserve" x="331.6397" y="75.8548" stroke-width="1.5875" font-family="Fira Mono" font-size="8.4667" font-weight="400" style="-inkscape-font-specification:&quot;Fira Mono, Normal&quot;;font-variant-ligatures:normal;font-variant-caps:normal;font-variant-numeric:normal;font-variant-east-asian:normal;text-align:center" text-anchor="middle"><tspan x="331.6397" y="75.8548">Block N</tspan></text></g><text xml:space="preserve" x="-89.5182" y="56.6988" fill="#f9f9f9" stroke="#1a1a1a" stroke-linejoin="bevel" stroke-width=".7937" font-family="Fira Mono" font-size="3.1538" font-weight="400" paint-order="markers stroke fill" style="-inkscape-font-specification:&quot;Fira Mono, Normal&quot;;font-variant-ligatures:normal;font-variant-caps:normal;font-variant-numeric:normal;font-variant-east-asian:normal;text-align:center" text-anchor="middle"><tspan x="-89.5182" y="56.6988">...</tspan></text></g></svg>