<svg xmlns="http://www.w3.org/2000/svg" xml:space="preserve" width="290.709" height="297.045" viewBox="0 0 76.917 78.593"><g transform="translate(128.022 -28.178)"><rect width="75.761" height="60.983" x="-127.184" y="35.103" fill="none" stroke="red" stroke-width=".636" ry="11.234"/><path fill="#f9f9f9" stroke="#1a1a1a" stroke-linecap="square" stroke-width=".794" d="M-89.851 59.4v37.69l-2.474 3.845h2.474v5.44h.66v-5.44h2.473l-2.474-3.844V59.399ZM-89.521 28.911l-2.804 4.357h2.474V54.34h.66V33.268h2.473z" paint-order="markers stroke fill"/><text xml:space="preserve" x="-127.562" y="33.079" fill="#f9f9f9" stroke="#1a1a1a" stroke-linecap="round" stroke-linejoin="bevel" stroke-width="1.058" font-family="Fira Mono" font-size="3.154" font-weight="700" paint-order="markers stroke fill" style="-inkscape-font-specification:&quot;Fira Mono, Bold&quot;;font-variant-ligatures:normal;font-variant-caps:normal;font-variant-numeric:normal;font-variant-east-asian:normal;text-align:start"><tspan x="-127.562" y="33.079" style="-inkscape-font-specification:&quot;Fira Mono, Bold&quot;;font-variant-ligatures:normal;font-variant-caps:normal;font-variant-numeric:normal;font-variant-east-asian:normal;text-align:start">Transformer Stage</tspan></text><g transform="matrix(.372 0 0 .372 -215.111 16.08)"><rect width="121.125" height="21.276" x="276.598" y="167.493" fill="#ffcb00" ry="0"/><text xml:space="preserve" x="337.106" y="181.255" stroke-width="1.587" font-family="Fira Mono" font-size="8.467" font-weight="400" style="-inkscape-font-specification:&quot;Fira Mono, Normal&quot;;font-variant-ligatures:normal;font-variant-caps:normal;font-variant-numeric:normal;font-variant-east-asian:normal;text-align:center" text-anchor="middle"><tspan x="337.106" y="181.255">Block 1</tspan></text></g><g transform="matrix(.372 0 0 .372 -212.009 19.412)"><rect width="121.125" height="21.276" x="268.27" y="134" fill="#ffcb00" ry="0"/><text xml:space="preserve" x="328.778" y="147.763" stroke-width="1.587" font-family="Fira Mono" font-size="8.467" font-weight="400" style="-inkscape-font-specification:&quot;Fira Mono, Normal&quot;;font-variant-ligatures:normal;font-variant-caps:normal;font-variant-numeric:normal;font-variant-east-asian:normal;text-align:center" text-anchor="middle"><tspan x="328.778" y="147.763">Block 2</tspan></text></g><g transform="matrix(.372 0 0 .372 -211.979 20.855)"><rect width="121.125" height="21.276" x="268.189" y="105.574" fill="#ffcb00" ry="0"/><text xml:space="preserve" x="328.697" y="119.337" stroke-width="1.587" font-family="Fira Mono" font-size="8.467" font-weight="400" style="-inkscape-font-specification:&quot;Fira Mono, Normal&quot;;font-variant-ligatures:normal;font-variant-caps:normal;font-variant-numeric:normal;font-variant-east-asian:normal;text-align:center" text-anchor="middle"><tspan x="328.697" y="119.337">Block 3</tspan></text></g><g transform="matrix(.372 0 0 .372 -213.075 20.393)"><rect width="121.125" height="21.276" x="271.132" y="62.093" fill="#ffcb00" ry="0"/><text xml:space="preserve" x="331.64" y="75.855" stroke-width="1.587" font-family="Fira Mono" font-size="8.467" font-weight="400" style="-inkscape-font-specification:&quot;Fira Mono, Normal&quot;;font-variant-ligatures:normal;font-variant-caps:normal;font-variant-numeric:normal;font-variant-east-asian:normal;text-align:center" text-anchor="middle"><tspan x="331.64" y="75.855">Block N</tspan></text></g><text xml:space="preserve" x="-89.518" y="56.699" fill="#f9f9f9" stroke="#1a1a1a" stroke-linejoin="bevel" stroke-width=".794" font-family="Fira Mono" font-size="3.154" font-weight="400" paint-order="markers stroke fill" style="-inkscape-font-specification:&quot;Fira Mono, Normal&quot;;font-variant-ligatures:normal;font-variant-caps:normal;font-variant-numeric:normal;font-variant-east-asian:normal;text-align:center" text-anchor="middle"><tspan x="-89.518" y="56.699">...</tspan></text></g></svg>