<svg xmlns="http://www.w3.org/2000/svg" width="300.5424" height="374.8535" viewBox="0 0 79.5185 99.18"><g transform="translate(34.8984 -17.7835)"><path fill="#f9f9f9" stroke="#1a1a1a" stroke-linecap="square" stroke-width=".7937" d="m5.1207 18.517-2.803 4.3564h2.4836v82.906l-2.4837 3.8602h2.4837v6.927h.639v-6.927h2.4836l-2.4837-3.8598v-5.9483h31.3614V72.8329H13.6099v-2.5113L9.2535 73.125l4.3564 2.803v-2.5035h22.6002v25.8155H5.4402V63.0295h31.3614V36.0311H13.6089v-2.591l-4.3564 2.8033 4.3564 2.8033v-2.424h22.6012v25.8155H5.4402V22.8734H7.924Z" paint-order="markers stroke fill"/><text xml:space="preserve" x="-34.4386" y="24.4486" fill="#f9f9f9" stroke="#1a1a1a" stroke-linecap="round" stroke-linejoin="bevel" stroke-width="1.0583" font-family="Fira Mono" font-size="3.1538" font-weight="700" paint-order="markers stroke fill" style="-inkscape-font-specification:&quot;Fira Mono, Bold&quot;;font-variant-ligatures:normal;font-variant-caps:normal;font-variant-numeric:normal;font-variant-east-asian:normal;text-align:start"><tspan x="-34.4386" y="24.4486" style="-inkscape-font-specification:&quot;Fira Mono, Bold&quot;;font-variant-ligatures:normal;font-variant-caps:normal;font-variant-numeric:normal;font-variant-east-asian:normal;text-align:start">Transformer Block</tspan></text><g transform="matrix(.372 0 0 .372 -127.3727 18.2527)"><rect width="121.1246" height="21.2761" x="295.132" y="190.5299" fill="#00efe5" ry="0"/><text xml:space="preserve" x="355.6393" y="204.2921" stroke-width="1.5875" font-family="Fira Mono" font-size="8.4667" font-weight="400" style="-inkscape-font-specification:&quot;Fira Mono, Normal&quot;;font-variant-ligatures:normal;font-variant-caps:normal;font-variant-numeric:normal;font-variant-east-asian:normal;text-align:center" text-anchor="middle"><tspan x="355.6393" y="204.2921">LayerNorm</tspan></text></g><g transform="matrix(.372 0 0 .372 -127.4132 20.943)"><rect width="121.1246" height="21.2761" x="295.2406" y="160.2593" fill="#00efe5" ry="0"/><text xml:space="preserve" x="355.7479" y="174.0216" stroke-width="1.5875" font-family="Fira Mono" font-size="8.4667" font-weight="400" style="-inkscape-font-specification:&quot;Fira Mono, Normal&quot;;font-variant-ligatures:normal;font-variant-caps:normal;font-variant-numeric:normal;font-variant-east-asian:normal;text-align:center" text-anchor="middle"><tspan x="355.7479" y="174.0216">SelfAttention</tspan></text></g><g transform="matrix(.372 0 0 .372 -126.1233 11.3363)"><rect width="121.1246" height="21.2761" x="291.7778" y="110.0852" fill="#00efe5" ry="0"/><text xml:space="preserve" x="352.2851" y="123.8474" stroke-width="1.5875" font-family="Fira Mono" font-size="8.4667" font-weight="400" style="-inkscape-font-specification:&quot;Fira Mono, Normal&quot;;font-variant-ligatures:normal;font-variant-caps:normal;font-variant-numeric:normal;font-variant-east-asian:normal;text-align:center" text-anchor="middle"><tspan x="352.2851" y="123.8474">LayerNorm</tspan></text></g><g transform="matrix(.372 0 0 .372 -124.7324 11.5509)"><rect width="121.1246" height="21.2761" x="288.0438" y="86.4613" fill="#00efe5" ry="0"/><text xml:space="preserve" x="348.5511" y="100.2235" stroke-width="1.5875" font-family="Fira Mono" font-size="8.4667" font-weight="400" style="-inkscape-font-specification:&quot;Fira Mono, Normal&quot;;font-variant-ligatures:normal;font-variant-caps:normal;font-variant-numeric:normal;font-variant-east-asian:normal;text-align:center" text-anchor="middle"><tspan x="348.5511" y="100.2235">MLP</tspan></text></g><rect width="78.3535" height="77.057" x="-34.056" y="26.0964" fill="none" stroke="#ffd500" stroke-width=".6452" ry="0"/><g stroke-width="2.4876" transform="matrix(.213 0 0 .213 -70.8592 41.4751)"><circle cx="357.1781" cy="148.7836" r="16.151" fill="#fff" stroke="#000"/><g stroke-width="4.6321" transform="matrix(.537 0 0 .537 222.3177 160.9022)"><rect width="7.5372" height="29.0719" x="247.351" y="-37.1015" ry="0"/><rect width="7.5372" height="29.0719" x="-26.3341" y="-265.6555" ry="0" transform="rotate(90)"/></g></g><g stroke-width="2.4876" transform="matrix(.213 0 0 .213 -70.8592 4.5937)"><circle cx="357.1781" cy="148.7836" r="16.151" fill="#fff" stroke="#000"/><g stroke-width="4.6321" transform="matrix(.537 0 0 .537 222.3177 160.9022)"><rect width="7.5372" height="29.0719" x="247.351" y="-37.1015" ry="0"/><rect width="7.5372" height="29.0719" x="-26.3341" y="-265.6555" ry="0" transform="rotate(90)"/></g></g></g></svg>