<svg xmlns="http://www.w3.org/2000/svg" xml:space="preserve" width="290.15" height="385.167" viewBox="0 0 76.769 101.909"><g transform="translate(696.489 361.793)"><rect width="11.706" height="1.463" x="-664.149" y="-275.044" fill="#234884" ry="0"/><rect width="11.706" height="1.463" x="-664.149" y="-276.75" fill="#ae2da2" ry="0"/><rect width="11.706" height="1.463" x="-664.149" y="-273.412" fill="#234884" ry="0"/><rect width="11.706" height="1.463" x="-664.149" y="-271.779" fill="#234884" ry="0"/><rect width="11.706" height="1.463" x="-664.149" y="-270.147" fill="#234884" ry="0"/><rect width="11.706" height="1.463" x="-664.149" y="-268.515" fill="#234884" ry="0"/><text xml:space="preserve" x="-682.545" y="-276.529" fill="#f9f9f9" stroke="#1a1a1a" stroke-linecap="round" stroke-linejoin="bevel" stroke-width="1.058" font-family="Fira Mono" font-size="3.154" font-weight="700" paint-order="markers stroke fill" style="-inkscape-font-specification:&quot;Fira Mono, Bold&quot;;font-variant-ligatures:normal;font-variant-caps:normal;font-variant-numeric:normal;font-variant-east-asian:normal;text-align:center" text-anchor="middle"><tspan x="-682.545" y="-276.529" style="-inkscape-font-specification:&quot;Fira Mono, Bold&quot;;font-variant-ligatures:normal;font-variant-caps:normal;font-variant-numeric:normal;font-variant-east-asian:normal">Pre-pended</tspan><tspan x="-682.545" y="-272.587" style="-inkscape-font-specification:&quot;Fira Mono, Bold&quot;;font-variant-ligatures:normal;font-variant-caps:normal;font-variant-numeric:normal;font-variant-east-asian:normal">Readout</tspan><tspan x="-682.545" y="-268.644" style="-inkscape-font-specification:&quot;Fira Mono, Bold&quot;;font-variant-ligatures:normal;font-variant-caps:normal;font-variant-numeric:normal;font-variant-east-asian:normal">token</tspan></text><path fill="#f9f9f9" stroke="#1a1a1a" stroke-linecap="round" stroke-width=".794" d="m-666.272-278.17-.217.58c-1.177-.32-2.13-.445-2.899-.445-.84 0-1.463.151-1.925.363a2.473 2.473 0 0 0-.932.708 1.603 1.603 0 0 0-.244.429l.563.178s.023-.085.147-.242c.123-.158.338-.364.713-.536.712-.326 2.026-.526 4.369.102l-.22.585 1.66-.36z" color="#000" paint-order="markers stroke fill"/><g fill="#6776bc" transform="matrix(.372 0 0 .372 -664.688 -381.483)"><rect width="31.426" height="3.928" x="71.237" y="211.833" ry="0"/><rect width="31.426" height="3.928" x="71.237" y="216.213" ry="0"/><rect width="31.426" height="3.928" x="71.237" y="220.593" ry="0"/><rect width="31.426" height="3.928" x="71.237" y="224.973" ry="0"/><rect width="31.426" height="3.928" x="71.237" y="229.353" ry="0"/><rect width="31.426" height="3.928" x="71.237" y="233.733" ry="0"/></g><g fill="#75f0c2" transform="translate(.53 -2.117)"><rect width="11.706" height="1.463" x="-638.682" y="-319.002" ry="0"/><rect width="11.706" height="1.463" x="-638.682" y="-317.371" ry="0"/><rect width="11.706" height="1.463" x="-638.682" y="-315.739" ry="0"/><rect width="11.706" height="1.463" x="-638.682" y="-314.108" ry="0"/></g><g fill="#d2a7f9" transform="translate(.53 -4.282)"><rect width="11.706" height="1.463" x="-638.682" y="-335.427" ry="0"/><rect width="11.706" height="1.463" x="-638.682" y="-333.796" ry="0"/></g><rect width="11.706" height="1.463" x="-638.153" y="-360.975" fill="#79d2f9" ry="0"/><rect width="20.193" height="11.121" x="-668.342" y="-295.677" fill="#f05" ry="2.049"/><text xml:space="preserve" x="-664.806" y="-289.347" stroke-width=".099" font-family="Fira Mono" font-size="3.154" font-weight="400" style="-inkscape-font-specification:&quot;Fira Mono, Normal&quot;;font-variant-ligatures:normal;font-variant-caps:normal;font-variant-numeric:normal;font-variant-east-asian:normal"><tspan x="-664.806" y="-289.347" style="-inkscape-font-specification:&quot;Fira Mono, Normal&quot;;font-variant-ligatures:normal;font-variant-caps:normal;font-variant-numeric:normal;font-variant-east-asian:normal">Stage 1</tspan></text><g transform="translate(0 -4.233)"><rect width="20.193" height="11.121" x="-668.342" y="-311.827" fill="#f05" ry="2.049"/><text xml:space="preserve" x="-664.768" y="-305.497" stroke-width=".099" font-family="Fira Mono" font-size="3.154" font-weight="400" style="-inkscape-font-specification:&quot;Fira Mono, Normal&quot;;font-variant-ligatures:normal;font-variant-caps:normal;font-variant-numeric:normal;font-variant-east-asian:normal"><tspan x="-664.768" y="-305.497" style="-inkscape-font-specification:&quot;Fira Mono, Normal&quot;;font-variant-ligatures:normal;font-variant-caps:normal;font-variant-numeric:normal;font-variant-east-asian:normal">Stage 2</tspan></text></g><g transform="translate(0 -8.337)"><rect width="20.193" height="11.121" x="-668.342" y="-327.978" fill="#f05" ry="2.049"/><text xml:space="preserve" x="-664.782" y="-321.648" stroke-width=".099" font-family="Fira Mono" font-size="3.154" font-weight="400" style="-inkscape-font-specification:&quot;Fira Mono, Normal&quot;;font-variant-ligatures:normal;font-variant-caps:normal;font-variant-numeric:normal;font-variant-east-asian:normal"><tspan x="-664.782" y="-321.648" style="-inkscape-font-specification:&quot;Fira Mono, Normal&quot;;font-variant-ligatures:normal;font-variant-caps:normal;font-variant-numeric:normal;font-variant-east-asian:normal">Stage 3</tspan></text></g><g transform="translate(0 -12.59)"><rect width="20.193" height="11.121" x="-668.342" y="-344.128" fill="#f05" ry="2.049"/><text xml:space="preserve" x="-664.823" y="-337.798" stroke-width=".099" font-family="Fira Mono" font-size="3.154" font-weight="400" style="-inkscape-font-specification:&quot;Fira Mono, Normal&quot;;font-variant-ligatures:normal;font-variant-caps:normal;font-variant-numeric:normal;font-variant-east-asian:normal"><tspan x="-664.823" y="-337.798" style="-inkscape-font-specification:&quot;Fira Mono, Normal&quot;;font-variant-ligatures:normal;font-variant-caps:normal;font-variant-numeric:normal;font-variant-east-asian:normal">Stage 4</tspan></text></g><text xml:space="preserve" x="-658.302" y="-264.409" fill="#f9f9f9" stroke="#1a1a1a" stroke-linecap="round" stroke-linejoin="bevel" stroke-width="1.058" font-family="Fira Mono" font-size="3.154" font-weight="700" paint-order="markers stroke fill" style="-inkscape-font-specification:&quot;Fira Mono, Bold&quot;;font-variant-ligatures:normal;font-variant-caps:normal;font-variant-numeric:normal;font-variant-east-asian:normal;text-align:center" text-anchor="middle"><tspan x="-658.302" y="-264.409" style="-inkscape-font-specification:&quot;Fira Mono, Bold&quot;;font-variant-ligatures:normal;font-variant-caps:normal;font-variant-numeric:normal;font-variant-east-asian:normal;text-align:center">Image patch</tspan><tspan x="-658.302" y="-260.467" style="-inkscape-font-specification:&quot;Fira Mono, Bold&quot;;font-variant-ligatures:normal;font-variant-caps:normal;font-variant-numeric:normal;font-variant-east-asian:normal;text-align:center">tokens</tspan></text><text xml:space="preserve" x="-632.344" y="-288.335" fill="#f9f9f9" stroke="#1a1a1a" stroke-linecap="round" stroke-linejoin="bevel" stroke-width="1.058" font-family="Fira Mono" font-size="3.154" font-weight="700" paint-order="markers stroke fill" style="-inkscape-font-specification:&quot;Fira Mono, Bold&quot;;font-variant-ligatures:normal;font-variant-caps:normal;font-variant-numeric:normal;font-variant-east-asian:normal;text-align:center" text-anchor="middle"><tspan x="-632.344" y="-288.335" style="-inkscape-font-specification:&quot;Fira Mono, Bold&quot;;font-variant-ligatures:normal;font-variant-caps:normal;font-variant-numeric:normal;font-variant-east-asian:normal;text-align:center">Output tokens</tspan></text><path fill="#f9f9f9" stroke="#1a1a1a" stroke-linecap="round" stroke-width=".794" d="m-657.985-299.986-.92 1.428h.717v2.341h.364v-1.28h17.219v.779l1.428-.919-1.428-.919v.694h-17.219v-.696h.758zM-657.985-320.37l-.92 1.428h.717v2.32h.364v-1.28h17.219v.782l1.428-.92-1.428-.918v.691h-17.219v-.675h.758zM-657.985-283.444l-.92 1.428h.737v4.674h.365v-4.674h.737zM-658.01-340.624l-.918 1.428h.74v2.419h.364v-1.28h17.219v.75l1.428-.92-1.428-.918v.723h-17.219v-.774h.734zM-640.605-361.066v.69h-17.8v2.629h.364v-2.266h17.436v.785l1.428-.919z" paint-order="markers stroke fill"/><text xml:space="preserve" x="-683.896" y="-320.037" fill="#f9f9f9" stroke="#1a1a1a" stroke-linecap="round" stroke-linejoin="bevel" stroke-width="1.058" font-family="Fira Mono" font-size="3.154" font-weight="700" paint-order="markers stroke fill" style="-inkscape-font-specification:&quot;Fira Mono, Bold&quot;;font-variant-ligatures:normal;font-variant-caps:normal;font-variant-numeric:normal;font-variant-east-asian:normal;text-align:center" text-anchor="middle"><tspan x="-683.896" y="-320.037" style="-inkscape-font-specification:&quot;Fira Mono, Bold&quot;;font-variant-ligatures:normal;font-variant-caps:normal;font-variant-numeric:normal;font-variant-east-asian:normal">Image Encoder</tspan><tspan x="-683.896" y="-316.095" style="-inkscape-font-specification:&quot;Fira Mono, Bold&quot;;font-variant-ligatures:normal;font-variant-caps:normal;font-variant-numeric:normal;font-variant-east-asian:normal">(SwinV2)</tspan></text><g transform="translate(-476.94 -391.497)"><rect width="15.829" height="3.599" x="-189.22" y="86.861" fill="#ff9c00" rx="0" ry="0"/><text xml:space="preserve" x="-181.232" y="89.412" stroke-width=".099" font-family="Fira Mono" font-size="3.154" font-weight="400" style="-inkscape-font-specification:&quot;Fira Mono, Normal&quot;;font-variant-ligatures:normal;font-variant-caps:normal;font-variant-numeric:normal;font-variant-east-asian:normal;text-align:center" text-anchor="middle"><tspan x="-181.232" y="89.412" style="-inkscape-font-specification:&quot;Fira Mono, Normal&quot;;font-variant-ligatures:normal;font-variant-caps:normal;font-variant-numeric:normal;font-variant-east-asian:normal;text-align:center">Merge</tspan></text></g><g transform="translate(-476.94 -411.802)"><rect width="15.829" height="3.599" x="-189.22" y="86.861" fill="#ff9c00" rx="0" ry="0"/><text xml:space="preserve" x="-181.232" y="89.412" stroke-width=".099" font-family="Fira Mono" font-size="3.154" font-weight="400" style="-inkscape-font-specification:&quot;Fira Mono, Normal&quot;;font-variant-ligatures:normal;font-variant-caps:normal;font-variant-numeric:normal;font-variant-east-asian:normal;text-align:center" text-anchor="middle"><tspan x="-181.232" y="89.412" style="-inkscape-font-specification:&quot;Fira Mono, Normal&quot;;font-variant-ligatures:normal;font-variant-caps:normal;font-variant-numeric:normal;font-variant-east-asian:normal;text-align:center">Merge</tspan></text></g><g transform="translate(-476.94 -432.002)"><rect width="15.829" height="3.599" x="-189.22" y="86.861" fill="#ff9c00" rx="0" ry="0"/><text xml:space="preserve" x="-181.232" y="89.412" stroke-width=".099" font-family="Fira Mono" font-size="3.154" font-weight="400" style="-inkscape-font-specification:&quot;Fira Mono, Normal&quot;;font-variant-ligatures:normal;font-variant-caps:normal;font-variant-numeric:normal;font-variant-east-asian:normal;text-align:center" text-anchor="middle"><tspan x="-181.232" y="89.412" style="-inkscape-font-specification:&quot;Fira Mono, Normal&quot;;font-variant-ligatures:normal;font-variant-caps:normal;font-variant-numeric:normal;font-variant-east-asian:normal;text-align:center">Merge</tspan></text></g></g></svg>