<svg xmlns="http://www.w3.org/2000/svg" xmlns:xlink="http://www.w3.org/1999/xlink" xml:space="preserve" width="596.914" height="376.709" viewBox="0 0 157.933 99.671"><g transform="translate(577.494 261.958)"><path fill="#f9f9f9" stroke="#1a1a1a" stroke-linecap="square" stroke-width=".794" d="m-447.244-251.19-2.803 4.357h2.484v63.326l-2.484 3.86h2.484v6.928h.639v-6.927h2.483l-2.483-3.86v-63.327h2.483z" paint-order="markers stroke fill"/><rect id="a" width="45.118" height="7.925" x="-469.21" y="-236.071" fill="#67ffb3" fill-opacity="1" stroke="none" stroke-dasharray="none" stroke-width=".124" ry="0"/><use xlink:href="#a" transform="translate(0 9.338)"/><use xlink:href="#a" transform="translate(0 37.352)"/><use xlink:href="#a" transform="translate(0 18.676)"/><use xlink:href="#a" transform="translate(0 28.014)"/><text xml:space="preserve" x="-483.02" y="-246.102" fill="#f9f9f9" stroke="#1a1a1a" stroke-linecap="round" stroke-linejoin="bevel" stroke-width="1.058" font-family="Fira Mono" font-size="3.154" font-weight="700" paint-order="markers stroke fill" style="-inkscape-font-specification:&quot;Fira Mono, Bold&quot;;font-variant-ligatures:normal;font-variant-caps:normal;font-variant-numeric:normal;font-variant-east-asian:normal;text-align:start"><tspan x="-483.02" y="-246.102" style="-inkscape-font-specification:&quot;Fira Mono, Bold&quot;;font-variant-ligatures:normal;font-variant-caps:normal;font-variant-numeric:normal;font-variant-east-asian:normal;text-align:start">SwinV2 Attention</tspan></text><rect width="54.992" height="58.38" x="-474.74" y="-244.362" fill="none" stroke="#00efe5" stroke-width=".373" ry="0"/><text xml:space="preserve" x="-446.672" y="-212.269" stroke-width=".591" font-family="Fira Mono" font-size="3.154" font-weight="400" style="-inkscape-font-specification:&quot;Fira Mono, Normal&quot;;font-variant-ligatures:normal;font-variant-caps:normal;font-variant-numeric:normal;font-variant-east-asian:normal;text-align:center" text-anchor="middle"><tspan x="-446.672" y="-212.269">Cosine Attention</tspan></text><text xml:space="preserve" x="-446.672" y="-193.593" stroke-width=".591" font-family="Fira Mono" font-size="3.154" font-weight="400" style="-inkscape-font-specification:&quot;Fira Mono, Normal&quot;;font-variant-ligatures:normal;font-variant-caps:normal;font-variant-numeric:normal;font-variant-east-asian:normal;text-align:center" text-anchor="middle"><tspan x="-446.672" y="-193.593">Shift</tspan></text><text xml:space="preserve" x="-446.672" y="-202.931" stroke-width=".591" font-family="Fira Mono" font-size="3.154" font-weight="400" style="-inkscape-font-specification:&quot;Fira Mono, Normal&quot;;font-variant-ligatures:normal;font-variant-caps:normal;font-variant-numeric:normal;font-variant-east-asian:normal;text-align:center" text-anchor="middle"><tspan x="-446.672" y="-202.931">Patches-to-Windows</tspan></text><text xml:space="preserve" x="-446.672" y="-230.945" stroke-width=".591" font-family="Fira Mono" font-size="3.154" font-weight="400" style="-inkscape-font-specification:&quot;Fira Mono, Normal&quot;;font-variant-ligatures:normal;font-variant-caps:normal;font-variant-numeric:normal;font-variant-east-asian:normal;text-align:center" text-anchor="middle"><tspan x="-446.672" y="-230.945">Unshift</tspan></text><text xml:space="preserve" x="-446.672" y="-221.607" stroke-width=".591" font-family="Fira Mono" font-size="3.154" font-weight="400" style="-inkscape-font-specification:&quot;Fira Mono, Normal&quot;;font-variant-ligatures:normal;font-variant-caps:normal;font-variant-numeric:normal;font-variant-east-asian:normal;text-align:center" text-anchor="middle"><tspan x="-446.672" y="-221.607">Windows-to-Patches</tspan></text></g><g transform="translate(574.709 302.954)"><path fill="#f9f9f9" stroke="#1a1a1a" stroke-linecap="square" stroke-width=".794" d="m-534.69-301.73-2.803 4.357h2.484v82.906l-2.484 3.86h2.484v6.927h.64v-6.927h2.483l-2.484-3.86v-5.948h31.361v-26.998H-526.2v-2.512l-4.357 2.804 4.357 2.803v-2.504h22.6v25.816h-30.77v-36.21h31.361v-27H-526.2v-2.59l-4.357 2.803 4.357 2.803v-2.424h22.6v25.816h-30.769v-39.565h2.484z" paint-order="markers stroke fill"/><text xml:space="preserve" x="-574.249" y="-300.031" fill="#f9f9f9" stroke="#1a1a1a" stroke-linecap="round" stroke-linejoin="bevel" stroke-width="1.058" font-family="Fira Mono" font-size="3.154" font-weight="700" paint-order="markers stroke fill" style="-inkscape-font-specification:&quot;Fira Mono, Bold&quot;;font-variant-ligatures:normal;font-variant-caps:normal;font-variant-numeric:normal;font-variant-east-asian:normal;text-align:start"><tspan x="-574.249" y="-300.031" style="-inkscape-font-specification:&quot;Fira Mono, Bold&quot;;font-variant-ligatures:normal;font-variant-caps:normal;font-variant-numeric:normal;font-variant-east-asian:normal;text-align:start">Transformer Block</tspan><tspan x="-574.249" y="-296.089" style="-inkscape-font-specification:&quot;Fira Mono, Bold&quot;;font-variant-ligatures:normal;font-variant-caps:normal;font-variant-numeric:normal;font-variant-east-asian:normal;text-align:start">(SwinV2)</tspan></text><g transform="matrix(.372 0 0 .372 -667.183 -310.579)"><rect width="121.125" height="21.276" x="295.132" y="190.53" fill="#00efe5" ry="0"/><text xml:space="preserve" x="355.639" y="204.292" stroke-width="1.587" font-family="Fira Mono" font-size="8.467" font-weight="400" style="-inkscape-font-specification:&quot;Fira Mono, Normal&quot;;font-variant-ligatures:normal;font-variant-caps:normal;font-variant-numeric:normal;font-variant-east-asian:normal;text-align:center" text-anchor="middle"><tspan x="355.639" y="204.292">LayerNorm</tspan></text></g><g transform="matrix(.372 0 0 .372 -667.223 -290.718)"><rect width="121.125" height="21.276" x="295.241" y="160.259" fill="#00efe5" ry="0"/><text xml:space="preserve" x="355.748" y="174.022" stroke-width="1.587" font-family="Fira Mono" font-size="8.467" font-weight="400" style="-inkscape-font-specification:&quot;Fira Mono, Normal&quot;;font-variant-ligatures:normal;font-variant-caps:normal;font-variant-numeric:normal;font-variant-east-asian:normal;text-align:center" text-anchor="middle"><tspan x="355.748" y="174.022">SwinV2 Attention</tspan></text></g><g transform="matrix(.372 0 0 .372 -664.543 -300.11)"><rect width="121.125" height="21.276" x="288.044" y="86.461" fill="#00efe5" ry="0"/><text xml:space="preserve" x="348.551" y="100.224" stroke-width="1.587" font-family="Fira Mono" font-size="8.467" font-weight="400" style="-inkscape-font-specification:&quot;Fira Mono, Normal&quot;;font-variant-ligatures:normal;font-variant-caps:normal;font-variant-numeric:normal;font-variant-east-asian:normal;text-align:center" text-anchor="middle"><tspan x="348.551" y="100.224">MLP</tspan></text></g><rect width="78.353" height="77.057" x="-573.866" y="-294.15" fill="none" stroke="#ffd500" stroke-width=".645" ry="0"/><g stroke-width="2.488" transform="matrix(.213 0 0 .213 -610.67 -278.771)"><circle cx="357.178" cy="148.784" r="16.151" fill="#fff" stroke="#000"/><g stroke-width="4.632" transform="matrix(.537 0 0 .537 222.318 160.902)"><rect width="7.537" height="29.072" x="247.351" y="-37.101" ry="0"/><rect width="7.537" height="29.072" x="-26.334" y="-265.656" ry="0" transform="rotate(90)"/></g></g><g stroke-width="2.488" transform="matrix(.213 0 0 .213 -610.67 -315.653)"><circle cx="357.178" cy="148.784" r="16.151" fill="#fff" stroke="#000"/><g stroke-width="4.632" transform="matrix(.537 0 0 .537 222.318 160.902)"><rect width="7.537" height="29.072" x="247.351" y="-37.101" ry="0"/><rect width="7.537" height="29.072" x="-26.334" y="-265.656" ry="0" transform="rotate(90)"/></g></g><g transform="matrix(.372 0 0 .372 -667.183 -347.46)"><rect width="121.125" height="21.276" x="295.132" y="190.53" fill="#00efe5" ry="0"/><text xml:space="preserve" x="355.639" y="204.292" stroke-width="1.587" font-family="Fira Mono" font-size="8.467" font-weight="400" style="-inkscape-font-specification:&quot;Fira Mono, Normal&quot;;font-variant-ligatures:normal;font-variant-caps:normal;font-variant-numeric:normal;font-variant-east-asian:normal;text-align:center" text-anchor="middle"><tspan x="355.639" y="204.292">LayerNorm</tspan></text></g></g></svg>