<svg xmlns="http://www.w3.org/2000/svg" xmlns:xlink="http://www.w3.org/1999/xlink" xml:space="preserve" width="411" height="261" viewBox="0 0 108.744 69.056"><g transform="translate(46.434 -79.375)"><g id="j" transform="translate(-39.687)"><g id="g"><path id="a" fill="#06d6a0" fill-opacity="1" stroke="#000" stroke-dasharray="none" stroke-linejoin="miter" stroke-width=".265" d="M-6.615 79.507H6.614v13.229H-6.615z" paint-order="markers stroke fill"/><use xlink:href="#a" id="b" x="0" y="0" transform="translate(13.23)"/><use xlink:href="#b" id="c" x="0" y="0" transform="translate(13.23)"/><use xlink:href="#c" id="d" x="0" y="0" transform="translate(13.23)"/><use xlink:href="#d" id="e" x="0" y="0" transform="translate(13.23)"/><use xlink:href="#e" id="f" x="0" y="0" transform="translate(13.23)"/><use xlink:href="#f" transform="translate(13.23)"/></g><use xlink:href="#g" id="h" x="0" y="0" transform="translate(0 13.23)"/><use xlink:href="#h" id="i" x="0" y="0" transform="translate(0 13.23)"/><use xlink:href="#i" transform="translate(0 13.23)"/></g><use xlink:href="#j" id="k" x="0" y="0" transform="translate(1.058 1.058)"/><use xlink:href="#k" id="l" x="0" y="0" transform="translate(1.058 1.058)"/><use xlink:href="#l" transform="translate(1.058 1.058)"/><g id="v" transform="translate(-35.454 4.233)"><g id="s"><path id="m" fill="#118ab2" fill-opacity="1" stroke="#000" stroke-dasharray="none" stroke-linejoin="miter" stroke-width=".265" d="M-6.615 79.507H6.614v13.229H-6.615z" paint-order="markers stroke fill"/><use xlink:href="#m" id="n" x="0" y="0" transform="translate(13.23)"/><use xlink:href="#n" id="o" x="0" y="0" transform="translate(13.23)"/><use xlink:href="#o" id="p" x="0" y="0" transform="translate(13.23)"/><use xlink:href="#p" id="q" x="0" y="0" transform="translate(13.23)"/><use xlink:href="#q" id="r" x="0" y="0" transform="translate(13.23)"/><use xlink:href="#r" transform="translate(13.23)"/></g><use xlink:href="#s" id="t" x="0" y="0" transform="translate(0 13.23)"/><use xlink:href="#t" id="u" x="0" y="0" transform="translate(0 13.23)"/><use xlink:href="#u" transform="translate(0 13.23)"/></g><use xlink:href="#v" id="w" x="0" y="0" transform="translate(1.058 1.058)"/><use xlink:href="#w" id="x" x="0" y="0" transform="translate(1.058 1.058)"/><use xlink:href="#x" transform="translate(1.058 1.058)"/><g id="H" transform="translate(-37.968 8.34)"><g id="E"><path id="y" fill="#ffd166" fill-opacity="1" stroke="#000" stroke-dasharray="none" stroke-linejoin="miter" stroke-width=".265" d="M.132 79.634h13.229v13.229H.132z" paint-order="markers stroke fill"/><use xlink:href="#y" id="z" x="0" y="0" transform="translate(13.23)"/><use xlink:href="#z" id="A" x="0" y="0" transform="translate(13.23)"/><use xlink:href="#A" id="B" x="0" y="0" transform="translate(13.23)"/><use xlink:href="#B" id="C" x="0" y="0" transform="translate(13.23)"/><use xlink:href="#C" id="D" x="0" y="0" transform="translate(13.23)"/><use xlink:href="#D" transform="translate(13.23)"/></g><use xlink:href="#E" id="F" x="0" y="0" transform="translate(0 13.23)"/><use xlink:href="#F" id="G" x="0" y="0" transform="translate(0 13.23)"/><use xlink:href="#G" transform="translate(0 13.23)"/></g><use xlink:href="#H" id="I" x="0" y="0" transform="translate(1.058 1.058)"/><use xlink:href="#I" id="J" x="0" y="0" transform="translate(1.058 1.058)"/><use xlink:href="#J" transform="translate(1.058 1.058)"/><g id="T" transform="translate(107.882 4.824)"><g id="Q" transform="translate(-141.617 -5.415)"><path id="K" fill="#ef476f" fill-opacity="1" stroke="#000" stroke-dasharray="none" stroke-linejoin="miter" stroke-width=".265" d="M.132 92.798h13.229v13.229H.132z" paint-order="markers stroke fill"/><use xlink:href="#K" id="L" x="0" y="0" transform="translate(13.23)"/><use xlink:href="#L" id="M" x="0" y="0" transform="translate(13.23)"/><use xlink:href="#M" id="N" x="0" y="0" transform="translate(13.23)"/><use xlink:href="#N" id="O" x="0" y="0" transform="translate(13.23)"/><use xlink:href="#O" id="P" x="0" y="0" transform="translate(13.23)"/><use xlink:href="#P" transform="translate(13.23)"/></g><use xlink:href="#Q" id="R" x="0" y="0" transform="translate(0 13.23)"/><use xlink:href="#R" id="S" x="0" y="0" transform="translate(0 13.23)"/><use xlink:href="#S" transform="translate(0 13.23)"/></g><use xlink:href="#T" id="U" x="0" y="0" transform="translate(1.058 1.058)"/><use xlink:href="#U" id="V" x="0" y="0" transform="translate(1.058 1.058)"/><use xlink:href="#V" transform="translate(1.058 1.058)"/></g></svg>