<svg xmlns="http://www.w3.org/2000/svg" xml:space="preserve" width="274.47" height="411.375" viewBox="0 0 72.62 108.843"><g transform="translate(213.963 -19.288)"><rect width="20.193" height="11.121" x="-189.965" y="76.836" fill="#f05" ry="2.049"/><rect width="20.193" height="11.121" x="-189.965" y="60.686" fill="#f05" ry="2.049"/><rect width="20.193" height="11.121" x="-189.965" y="44.535" fill="#f05" ry="2.049"/><rect width="20.193" height="11.121" x="-189.965" y="28.385" fill="#f05" ry="2.049"/><rect width="11.706" height="1.463" x="-185.772" y="112.972" fill="#234884" ry="0"/><rect width="11.706" height="1.463" x="-185.772" y="111.265" fill="#ae2da2" ry="0"/><rect width="11.706" height="1.463" x="-185.772" y="114.604" fill="#234884" ry="0"/><rect width="11.706" height="1.463" x="-185.772" y="116.236" fill="#234884" ry="0"/><rect width="11.706" height="1.463" x="-185.772" y="117.869" fill="#234884" ry="0"/><rect width="11.706" height="1.463" x="-185.772" y="119.501" fill="#234884" ry="0"/><text xml:space="preserve" x="-204.168" y="111.487" fill="#f9f9f9" stroke="#1a1a1a" stroke-linecap="round" stroke-linejoin="bevel" stroke-width="1.058" font-family="Fira Mono" font-size="3.154" font-weight="700" paint-order="markers stroke fill" style="-inkscape-font-specification:&quot;Fira Mono, Bold&quot;;font-variant-ligatures:normal;font-variant-caps:normal;font-variant-numeric:normal;font-variant-east-asian:normal;text-align:center" text-anchor="middle"><tspan x="-204.168" y="111.487" style="-inkscape-font-specification:&quot;Fira Mono, Bold&quot;;font-variant-ligatures:normal;font-variant-caps:normal;font-variant-numeric:normal;font-variant-east-asian:normal">Pre-pended</tspan><tspan x="-204.168" y="115.429" style="-inkscape-font-specification:&quot;Fira Mono, Bold&quot;;font-variant-ligatures:normal;font-variant-caps:normal;font-variant-numeric:normal;font-variant-east-asian:normal">Readout</tspan><tspan x="-204.168" y="119.371" style="-inkscape-font-specification:&quot;Fira Mono, Bold&quot;;font-variant-ligatures:normal;font-variant-caps:normal;font-variant-numeric:normal;font-variant-east-asian:normal">token</tspan></text><path fill="#f9f9f9" stroke="#1a1a1a" stroke-linecap="round" stroke-width=".794" d="m-187.894 109.846-.218.58c-1.177-.32-2.13-.445-2.899-.445-.84 0-1.463.15-1.925.362a2.473 2.473 0 0 0-.932.709 1.603 1.603 0 0 0-.244.428l.564.178s.023-.084.146-.242c.124-.158.338-.364.713-.535.712-.326 2.026-.527 4.369.102l-.22.585 1.66-.36z" color="#000" paint-order="markers stroke fill"/><g fill="#6776bc" transform="matrix(.372 0 0 .372 -186.84 -8.97)"><rect width="31.426" height="3.928" x="71.237" y="211.833" ry="0"/><rect width="31.426" height="3.928" x="71.237" y="216.213" ry="0"/><rect width="31.426" height="3.928" x="71.237" y="220.593" ry="0"/><rect width="31.426" height="3.928" x="71.237" y="224.973" ry="0"/><rect width="31.426" height="3.928" x="71.237" y="229.353" ry="0"/><rect width="31.426" height="3.928" x="71.237" y="233.733" ry="0"/></g><g fill="#75f0c2" transform="matrix(.372 0 0 .372 -186.84 -25.396)"><rect width="31.426" height="3.928" x="71.237" y="211.833" ry="0"/><rect width="31.426" height="3.928" x="71.237" y="216.213" ry="0"/><rect width="31.426" height="3.928" x="71.237" y="220.593" ry="0"/><rect width="31.426" height="3.928" x="71.237" y="224.973" ry="0"/><rect width="31.426" height="3.928" x="71.237" y="229.353" ry="0"/><rect width="31.426" height="3.928" x="71.237" y="233.733" ry="0"/></g><g fill="#d2a7f9" transform="matrix(.372 0 0 .372 -186.84 -41.82)"><rect width="31.426" height="3.928" x="71.237" y="211.833" ry="0"/><rect width="31.426" height="3.928" x="71.237" y="216.213" ry="0"/><rect width="31.426" height="3.928" x="71.237" y="220.593" ry="0"/><rect width="31.426" height="3.928" x="71.237" y="224.973" ry="0"/><rect width="31.426" height="3.928" x="71.237" y="229.353" ry="0"/><rect width="31.426" height="3.928" x="71.237" y="233.733" ry="0"/></g><g fill="#79d2f9" transform="matrix(.372 0 0 .372 -186.84 -58.775)"><rect width="31.426" height="3.928" x="71.237" y="211.833" ry="0"/><rect width="31.426" height="3.928" x="71.237" y="216.213" ry="0"/><rect width="31.426" height="3.928" x="71.237" y="220.593" ry="0"/><rect width="31.426" height="3.928" x="71.237" y="224.973" ry="0"/><rect width="31.426" height="3.928" x="71.237" y="229.353" ry="0"/><rect width="31.426" height="3.928" x="71.237" y="233.733" ry="0"/></g><text xml:space="preserve" x="-186.428" y="83.166" stroke-width=".099" font-family="Fira Mono" font-size="3.154" font-weight="400" style="-inkscape-font-specification:&quot;Fira Mono, Normal&quot;;font-variant-ligatures:normal;font-variant-caps:normal;font-variant-numeric:normal;font-variant-east-asian:normal"><tspan x="-186.428" y="83.166" style="-inkscape-font-specification:&quot;Fira Mono, Normal&quot;;font-variant-ligatures:normal;font-variant-caps:normal;font-variant-numeric:normal;font-variant-east-asian:normal">Stage 1</tspan></text><g transform="translate(-2.694 3.963)"><rect width="28.988" height="6.105" x="-191.668" y="92.709" fill="#ff9c00" rx="0" ry=".471"/><text xml:space="preserve" x="-189.584" y="96.646" stroke-width=".099" font-family="Fira Mono" font-size="3.154" font-weight="400" style="-inkscape-font-specification:&quot;Fira Mono, Normal&quot;;font-variant-ligatures:normal;font-variant-caps:normal;font-variant-numeric:normal;font-variant-east-asian:normal"><tspan x="-189.584" y="96.646" style="-inkscape-font-specification:&quot;Fira Mono, Normal&quot;;font-variant-ligatures:normal;font-variant-caps:normal;font-variant-numeric:normal;font-variant-east-asian:normal">Pos. Encoding</tspan></text></g><text xml:space="preserve" x="-186.39" y="67.015" stroke-width=".099" font-family="Fira Mono" font-size="3.154" font-weight="400" style="-inkscape-font-specification:&quot;Fira Mono, Normal&quot;;font-variant-ligatures:normal;font-variant-caps:normal;font-variant-numeric:normal;font-variant-east-asian:normal"><tspan x="-186.39" y="67.015" style="-inkscape-font-specification:&quot;Fira Mono, Normal&quot;;font-variant-ligatures:normal;font-variant-caps:normal;font-variant-numeric:normal;font-variant-east-asian:normal">Stage 2</tspan></text><text xml:space="preserve" x="-186.405" y="50.865" stroke-width=".099" font-family="Fira Mono" font-size="3.154" font-weight="400" style="-inkscape-font-specification:&quot;Fira Mono, Normal&quot;;font-variant-ligatures:normal;font-variant-caps:normal;font-variant-numeric:normal;font-variant-east-asian:normal"><tspan x="-186.405" y="50.865" style="-inkscape-font-specification:&quot;Fira Mono, Normal&quot;;font-variant-ligatures:normal;font-variant-caps:normal;font-variant-numeric:normal;font-variant-east-asian:normal">Stage 3</tspan></text><text xml:space="preserve" x="-186.446" y="34.715" stroke-width=".099" font-family="Fira Mono" font-size="3.154" font-weight="400" style="-inkscape-font-specification:&quot;Fira Mono, Normal&quot;;font-variant-ligatures:normal;font-variant-caps:normal;font-variant-numeric:normal;font-variant-east-asian:normal"><tspan x="-186.446" y="34.715" style="-inkscape-font-specification:&quot;Fira Mono, Normal&quot;;font-variant-ligatures:normal;font-variant-caps:normal;font-variant-numeric:normal;font-variant-east-asian:normal">Stage 4</tspan></text><text xml:space="preserve" x="-179.925" y="123.606" fill="#f9f9f9" stroke="#1a1a1a" stroke-linecap="round" stroke-linejoin="bevel" stroke-width="1.058" font-family="Fira Mono" font-size="3.154" font-weight="700" paint-order="markers stroke fill" style="-inkscape-font-specification:&quot;Fira Mono, Bold&quot;;font-variant-ligatures:normal;font-variant-caps:normal;font-variant-numeric:normal;font-variant-east-asian:normal;text-align:center" text-anchor="middle"><tspan x="-179.925" y="123.606" style="-inkscape-font-specification:&quot;Fira Mono, Bold&quot;;font-variant-ligatures:normal;font-variant-caps:normal;font-variant-numeric:normal;font-variant-east-asian:normal;text-align:center">Image patch</tspan><tspan x="-179.925" y="127.548" style="-inkscape-font-specification:&quot;Fira Mono, Bold&quot;;font-variant-ligatures:normal;font-variant-caps:normal;font-variant-numeric:normal;font-variant-east-asian:normal;text-align:center">tokens</tspan></text><text xml:space="preserve" x="-153.966" y="84.178" fill="#f9f9f9" stroke="#1a1a1a" stroke-linecap="round" stroke-linejoin="bevel" stroke-width="1.058" font-family="Fira Mono" font-size="3.154" font-weight="700" paint-order="markers stroke fill" style="-inkscape-font-specification:&quot;Fira Mono, Bold&quot;;font-variant-ligatures:normal;font-variant-caps:normal;font-variant-numeric:normal;font-variant-east-asian:normal;text-align:center" text-anchor="middle"><tspan x="-153.966" y="84.178" style="-inkscape-font-specification:&quot;Fira Mono, Bold&quot;;font-variant-ligatures:normal;font-variant-caps:normal;font-variant-numeric:normal;font-variant-east-asian:normal;text-align:center">Output tokens</tspan><tspan x="-153.966" y="88.12" style="-inkscape-font-specification:&quot;Fira Mono, Bold&quot;;font-variant-ligatures:normal;font-variant-caps:normal;font-variant-numeric:normal;font-variant-east-asian:normal;text-align:center">(x4)</tspan></text><path fill="#f9f9f9" stroke="#1a1a1a" stroke-linecap="round" stroke-width=".794" d="m-179.608 72.527-.919 1.428h.716v2.34h.365v-1.28h17.218v.78l1.428-.92-1.428-.918v.694h-17.218v-.696h.757zM-179.608 56.376l-.919 1.428h.716v2.32h.365v-1.28h17.218v.782l1.428-.919-1.428-.919v.691h-17.218v-.675h.757zM-179.608 104.571l-.919 1.428h.737v4.675h.364v-4.675h.737zM-179.608 89.06l-.919 1.428h.737v4.675h.364v-4.675h.737zM-179.632 40.226l-.919 1.428h.74v2.419h.365v-1.28h17.218v.749l1.428-.919-1.428-.919v.724h-17.218v-.774h.733zM-162.228 24.036v.69h-17.8v2.629h.364v-2.266h17.436v.785l1.428-.919z" paint-order="markers stroke fill"/><text xml:space="preserve" x="-195.895" y="22.211" fill="#f9f9f9" stroke="#1a1a1a" stroke-linecap="round" stroke-linejoin="bevel" stroke-width="1.058" font-family="Fira Mono" font-size="3.154" font-weight="700" paint-order="markers stroke fill" style="-inkscape-font-specification:&quot;Fira Mono, Bold&quot;;font-variant-ligatures:normal;font-variant-caps:normal;font-variant-numeric:normal;font-variant-east-asian:normal;text-align:center" text-anchor="middle"><tspan x="-195.895" y="22.211" style="-inkscape-font-specification:&quot;Fira Mono, Bold&quot;;font-variant-ligatures:normal;font-variant-caps:normal;font-variant-numeric:normal;font-variant-east-asian:normal">Image Encoder</tspan></text></g></svg>