<svg xmlns="http://www.w3.org/2000/svg" xmlns:xlink="http://www.w3.org/1999/xlink" xml:space="preserve" width="556.792" height="293.085" viewBox="0 0 147.318 77.545"><g transform="translate(1002.705 378.52)"><g id="e" transform="translate(-62.352 9.217)"><path id="a" fill="#ccc" stroke="#000" stroke-width=".265" d="M-928.502-380.522h12.965v12.965h-12.965z" paint-order="markers stroke fill"/><use xlink:href="#a" id="b" x="0" y="0" transform="translate(15.875)"/><use xlink:href="#b" id="c" x="0" y="0" transform="translate(15.875)"/><use xlink:href="#c" id="d" x="0" y="0" transform="translate(15.875)"/><use xlink:href="#d"/></g><use xlink:href="#e" id="f" x="0" y="0" transform="translate(0 15.875)"/><use xlink:href="#f" id="g" x="0" y="0" transform="translate(0 15.875)"/><use xlink:href="#g" transform="translate(0 15.875)"/><path fill="none" stroke="red" stroke-width=".265" d="M-936.037-317.127c-15.224-31.552-48.542-48.541-48.542-48.541s22.506 5.957 48.763 33.758" paint-order="markers stroke fill"/><path fill="none" stroke="red" stroke-width=".265" d="M-936.92-348.458c-16.327-12.136-47.217-16.99-47.217-16.99s23.609-29.125 48.983 0M-951.923-316.465c-24.271-19.858-31.773-48.762-31.773-48.762s1.103 35.082 15.225 48.542" paint-order="markers stroke fill"/><path fill="none" stroke="red" stroke-width=".265" d="M-984.137-315.362c-41.482-27.8 0-49.865 0-49.865s16.107-23.389 31.773.441" paint-order="markers stroke fill"/><path fill="none" stroke="red" stroke-width=".265" d="M-968.913-365.007c-6.178-14.12-15.666-.22-15.666-.22s-30.228 15.886-.44 33.096" paint-order="markers stroke fill"/><path fill="none" stroke="red" stroke-width=".265" d="M-983.696-365.89s-14.783 5.958-.662 18.535M-969.133-333.013c-13.018-6.399-13.901-32.214-13.901-32.214s22.506 4.633 30.89 15.004" paint-order="markers stroke fill"/><path fill="none" stroke="red" stroke-width=".265" d="M-952.364-331.69c-20.3-9.266-31.553-33.978-31.553-33.978s13.018 7.722 15.446 16.327" paint-order="markers stroke fill"/><path id="h" fill="red" stroke-width=".265" d="m-984.024-348.965.784 2.258-2.366-.334z" paint-order="markers stroke fill"/><use xlink:href="#h" id="i" x="0" y="0" transform="rotate(-15.7 -927.894 -339.025)"/><use xlink:href="#i" id="j" x="0" y="0" transform="rotate(-10.4 -891.076 -327.202)"/><use xlink:href="#j" id="k" x="0" y="0" transform="translate(15.775 -1.47)"/><use xlink:href="#k" id="l" x="0" y="0" transform="rotate(27 -960.51 -283.576)"/><use xlink:href="#l" id="m" x="0" y="0" transform="rotate(34.3 -943.304 -290.49)"/><use xlink:href="#m" id="n" x="0" y="0" transform="rotate(-36.6 -958.643 -324.962)"/><use xlink:href="#n" id="o" x="0" y="0" transform="translate(-.85 -16.161)"/><use xlink:href="#o" id="p" x="0" y="0" transform="rotate(12.5 -856.555 -350.16)"/><use xlink:href="#p" id="q" x="0" y="0" transform="rotate(16.7 -947.172 -423.502)"/><use xlink:href="#q" id="r" x="0" y="0" transform="translate(.464 14.692)"/><use xlink:href="#r" id="s" x="0" y="0" transform="rotate(-53.4 -933.725 -340.623)"/><use xlink:href="#s" id="t" x="0" y="0" transform="translate(-16.935 -1.392)"/><use xlink:href="#t" id="u" x="0" y="0" transform="rotate(62.7 -955.618 -340.502)"/><use xlink:href="#u" transform="translate(-.579 -16.297)"/><path fill="none" stroke="red" stroke-width=".265" d="M-986.787-366.595a2.02 2.02 0 0 1 .485-2.221 2.02 2.02 0 0 1 2.244-.365 2.02 2.02 0 0 1 1.162 1.954 2.02 2.02 0 0 1-1.39 1.798" paint-order="markers stroke fill"/><path fill="red" d="m-985.818-367.683-1.032 2.155-1.446-1.902z" paint-order="markers stroke fill"/><g id="x" transform="translate(-21.167)"><path id="v" fill="#ccc" fill-opacity="1" stroke="#000" stroke-width=".265" d="M-895.603-371.305h12.965v12.965h-12.965z" paint-order="markers stroke fill"/><use xlink:href="#v" id="w" x="0" y="0" transform="translate(15.875)"/><use xlink:href="#w" transform="translate(0 15.875)"/><use xlink:href="#v" transform="translate(0 15.875)"/></g><use xlink:href="#x" id="y" x="0" y="0" transform="translate(31.75)"/><use xlink:href="#y" id="z" x="0" y="0" transform="translate(0 31.75)"/><use xlink:href="#z" transform="translate(-31.75)"/><g id="C" transform="translate(-20.638)"><path fill="none" stroke="red" stroke-width=".265" d="M-872.712-365.007c-7.722-7.28-16.548-.661-16.548-.661s9.046 13.459 16.328 16.769M-889.26-365.668s-6.62 11.694-.441 16.548" paint-order="markers stroke fill"/><path id="A" fill="red" stroke-width=".265" d="m-889.33-350.43 1.252 2.036-2.383.184z" paint-order="markers stroke fill"/><use xlink:href="#A" id="B" x="0" y="0" transform="rotate(-15.4 -880.726 -410.102)"/><use xlink:href="#B" transform="rotate(27.9 -840.603 -356.212)"/><path fill="none" stroke="red" stroke-width=".265" d="M-892.587-364.601a1.835 1.835 74.238 0 1 .007-2.21 1.835 1.835 74.238 0 1 2.126-.6 1.835 1.835 74.238 0 1 1.163 1.879" paint-order="markers stroke fill"/><use xlink:href="#B" transform="rotate(41.2 -862.05 -382.952)"/></g><use xlink:href="#C" id="D" x="0" y="0" transform="translate(31.75)"/><use xlink:href="#D" id="E" x="0" y="0" transform="translate(0 31.75)"/><use xlink:href="#E" transform="translate(-31.75)"/><path id="F" fill="none" fill-opacity="1" stroke="#000" stroke-dasharray=".264584,.79375" stroke-dashoffset="0" stroke-width=".265" d="M-917.432-340.216h30.162v30.162h-30.162z" paint-order="markers stroke fill"/><use xlink:href="#F" id="G" x="0" y="0" transform="translate(0 -31.75)"/><use xlink:href="#G" id="H" x="0" y="0" transform="translate(31.75)"/><use xlink:href="#H" transform="translate(0 31.75)"/><text xml:space="preserve" x="-960.477" y="-301.054" stroke-dasharray=".264583,.79375" stroke-width=".265" font-family="Monospace" font-size="7.761" paint-order="markers stroke fill" style="-inkscape-font-specification:&quot;Monospace, Normal&quot;;text-align:center" text-anchor="middle"><tspan x="-960.477" y="-301.054" font-family="Sans" font-size="5.644" font-weight="400" style="-inkscape-font-specification:&quot;Sans, Normal&quot;;font-variant-ligatures:normal;font-variant-caps:normal;font-variant-numeric:normal;font-variant-east-asian:normal">Normal Attention</tspan></text><text xml:space="preserve" x="-886.131" y="-301.075" stroke-dasharray=".264583,.79375" stroke-width=".265" font-family="Monospace" font-size="7.761" paint-order="markers stroke fill" style="-inkscape-font-specification:&quot;Monospace, Normal&quot;;text-align:center" text-anchor="middle"><tspan x="-886.131" y="-301.075" font-family="Sans" font-size="5.644" font-weight="400" style="-inkscape-font-specification:&quot;Sans, Normal&quot;;font-variant-ligatures:normal;font-variant-caps:normal;font-variant-numeric:normal;font-variant-east-asian:normal">Windowed Attention</tspan></text></g></svg>