<svg xmlns="http://www.w3.org/2000/svg" xmlns:xlink="http://www.w3.org/1999/xlink" xml:space="preserve" width="331.363" height="408.19" viewBox="0 0 87.673 108"><g transform="translate(565.62 -21.378)"><use xlink:href="#a" transform="translate(0 20.49)"/><use xlink:href="#a" transform="translate(0 30.741)"/><use xlink:href="#a" transform="translate(0 10.238)"/><path id="a" fill="#f9f9f9" stroke="#1a1a1a" stroke-dasharray="none" stroke-linecap="round" stroke-linejoin="miter" stroke-width=".794" d="M-498.927 25.283v.69h-17.435v.363h17.435v.785l1.428-.919z" paint-order="markers stroke fill"/><rect width="11.706" height="1.463" x="-522.471" y="114.219" fill="#234884" ry="0"/><rect width="11.706" height="1.463" x="-522.471" y="112.513" fill="#ae2da2" ry="0"/><rect width="11.706" height="1.463" x="-522.471" y="115.851" fill="#234884" ry="0"/><rect width="11.706" height="1.463" x="-522.471" y="117.483" fill="#234884" ry="0"/><rect width="11.706" height="1.463" x="-522.471" y="119.116" fill="#234884" ry="0"/><rect width="11.706" height="1.463" x="-522.471" y="120.748" fill="#234884" ry="0"/><text xml:space="preserve" x="-540.867" y="112.734" fill="#f9f9f9" stroke="#1a1a1a" stroke-linecap="round" stroke-linejoin="bevel" stroke-width="1.058" font-family="Fira Mono" font-size="3.154" font-weight="700" paint-order="markers stroke fill" style="-inkscape-font-specification:&quot;Fira Mono, Bold&quot;;font-variant-ligatures:normal;font-variant-caps:normal;font-variant-numeric:normal;font-variant-east-asian:normal;text-align:center" text-anchor="middle"><tspan x="-540.867" y="112.734" style="-inkscape-font-specification:&quot;Fira Mono, Bold&quot;;font-variant-ligatures:normal;font-variant-caps:normal;font-variant-numeric:normal;font-variant-east-asian:normal">Pre-pended</tspan><tspan x="-540.867" y="116.676" style="-inkscape-font-specification:&quot;Fira Mono, Bold&quot;;font-variant-ligatures:normal;font-variant-caps:normal;font-variant-numeric:normal;font-variant-east-asian:normal">Readout</tspan><tspan x="-540.867" y="120.618" style="-inkscape-font-specification:&quot;Fira Mono, Bold&quot;;font-variant-ligatures:normal;font-variant-caps:normal;font-variant-numeric:normal;font-variant-east-asian:normal">token</tspan></text><path fill="#f9f9f9" stroke="#1a1a1a" stroke-linecap="round" stroke-width=".794" d="m-524.593 111.094-.218.58c-1.177-.32-2.13-.446-2.899-.446-.84 0-1.463.15-1.925.362a2.473 2.473 0 0 0-.932.709 1.603 1.603 0 0 0-.244.428l.564.179s.023-.085.146-.243c.124-.157.338-.363.713-.535.712-.326 2.026-.527 4.369.102l-.22.585 1.66-.36z" color="#000" paint-order="markers stroke fill"/><g fill="#6776bc" transform="matrix(.372 0 0 .372 -523.025 -26.773)"><rect width="31.426" height="3.928" x="71.237" y="211.833" ry="0"/><rect width="31.426" height="3.928" x="71.237" y="216.213" ry="0"/><rect width="31.426" height="3.928" x="71.237" y="220.593" ry="0"/><rect width="31.426" height="3.928" x="71.237" y="224.973" ry="0"/><rect width="31.426" height="3.928" x="71.237" y="229.353" ry="0"/><rect width="31.426" height="3.928" x="71.237" y="233.733" ry="0"/></g><g fill="#75f0c2" transform="matrix(.372 0 0 .372 -523.025 -37.025)"><rect width="31.426" height="3.928" x="71.237" y="211.833" ry="0"/><rect width="31.426" height="3.928" x="71.237" y="216.213" ry="0"/><rect width="31.426" height="3.928" x="71.237" y="220.593" ry="0"/><rect width="31.426" height="3.928" x="71.237" y="224.973" ry="0"/><rect width="31.426" height="3.928" x="71.237" y="229.353" ry="0"/><rect width="31.426" height="3.928" x="71.237" y="233.733" ry="0"/></g><g fill="#d2a7f9" transform="matrix(.372 0 0 .372 -523.025 -47.276)"><rect width="31.426" height="3.928" x="71.237" y="211.833" ry="0"/><rect width="31.426" height="3.928" x="71.237" y="216.213" ry="0"/><rect width="31.426" height="3.928" x="71.237" y="220.593" ry="0"/><rect width="31.426" height="3.928" x="71.237" y="224.973" ry="0"/><rect width="31.426" height="3.928" x="71.237" y="229.353" ry="0"/><rect width="31.426" height="3.928" x="71.237" y="233.733" ry="0"/></g><g fill="#79d2f9" transform="matrix(.372 0 0 .372 -523.025 -57.528)"><rect width="31.426" height="3.928" x="71.237" y="211.833" ry="0"/><rect width="31.426" height="3.928" x="71.237" y="216.213" ry="0"/><rect width="31.426" height="3.928" x="71.237" y="220.593" ry="0"/><rect width="31.426" height="3.928" x="71.237" y="224.973" ry="0"/><rect width="31.426" height="3.928" x="71.237" y="229.353" ry="0"/><rect width="31.426" height="3.928" x="71.237" y="233.733" ry="0"/></g><g transform="translate(-339.393 5.21)"><rect width="28.988" height="6.105" x="-191.668" y="92.709" fill="#ff9c00" rx="0" ry=".471"/><text xml:space="preserve" x="-189.584" y="96.646" stroke-width=".099" font-family="Fira Mono" font-size="3.154" font-weight="400" style="-inkscape-font-specification:&quot;Fira Mono, Normal&quot;;font-variant-ligatures:normal;font-variant-caps:normal;font-variant-numeric:normal;font-variant-east-asian:normal"><tspan x="-189.584" y="96.646" style="-inkscape-font-specification:&quot;Fira Mono, Normal&quot;;font-variant-ligatures:normal;font-variant-caps:normal;font-variant-numeric:normal;font-variant-east-asian:normal">Pos. Encoding</tspan></text></g><g transform="translate(.26 -5.292)"><rect width="20.193" height="4.302" x="-526.664" y="29.632" fill="#f05" ry=".792"/><text xml:space="preserve" x="-523.145" y="32.552" stroke-width=".099" font-family="Fira Mono" font-size="3.154" font-weight="400" style="-inkscape-font-specification:&quot;Fira Mono, Normal&quot;;font-variant-ligatures:normal;font-variant-caps:normal;font-variant-numeric:normal;font-variant-east-asian:normal"><tspan x="-523.145" y="32.552" style="-inkscape-font-specification:&quot;Fira Mono, Normal&quot;;font-variant-ligatures:normal;font-variant-caps:normal;font-variant-numeric:normal;font-variant-east-asian:normal">Stage 4</tspan></text></g><g transform="translate(.26 4.657)"><rect width="20.193" height="4.302" x="-526.664" y="29.632" fill="#f05" ry=".792"/><text xml:space="preserve" x="-523.145" y="32.552" stroke-width=".099" font-family="Fira Mono" font-size="3.154" font-weight="400" style="-inkscape-font-specification:&quot;Fira Mono, Normal&quot;;font-variant-ligatures:normal;font-variant-caps:normal;font-variant-numeric:normal;font-variant-east-asian:normal"><tspan x="-523.145" y="32.552" style="-inkscape-font-specification:&quot;Fira Mono, Normal&quot;;font-variant-ligatures:normal;font-variant-caps:normal;font-variant-numeric:normal;font-variant-east-asian:normal">Stage 3</tspan></text></g><g transform="translate(.26 14.91)"><rect width="20.193" height="4.302" x="-526.664" y="29.632" fill="#f05" ry=".792"/><text xml:space="preserve" x="-523.145" y="32.552" stroke-width=".099" font-family="Fira Mono" font-size="3.154" font-weight="400" style="-inkscape-font-specification:&quot;Fira Mono, Normal&quot;;font-variant-ligatures:normal;font-variant-caps:normal;font-variant-numeric:normal;font-variant-east-asian:normal"><tspan x="-523.145" y="32.552" style="-inkscape-font-specification:&quot;Fira Mono, Normal&quot;;font-variant-ligatures:normal;font-variant-caps:normal;font-variant-numeric:normal;font-variant-east-asian:normal">Stage 2</tspan></text></g><g transform="matrix(1 0 0 .968 0 5.42)"><rect width="20.193" height="35.521" x="-526.403" y="50.97" fill="#f05" ry="1.59"/><text xml:space="preserve" x="-522.867" y="69.5" stroke-width=".099" font-family="Fira Mono" font-size="3.154" font-weight="400" style="-inkscape-font-specification:&quot;Fira Mono, Normal&quot;;font-variant-ligatures:normal;font-variant-caps:normal;font-variant-numeric:normal;font-variant-east-asian:normal"><tspan x="-522.867" y="69.5" style="-inkscape-font-specification:&quot;Fira Mono, Normal&quot;;font-variant-ligatures:normal;font-variant-caps:normal;font-variant-numeric:normal;font-variant-east-asian:normal">Stage 1</tspan></text></g><text xml:space="preserve" x="-516.624" y="124.853" fill="#f9f9f9" stroke="#1a1a1a" stroke-linecap="round" stroke-linejoin="bevel" stroke-width="1.058" font-family="Fira Mono" font-size="3.154" font-weight="700" paint-order="markers stroke fill" style="-inkscape-font-specification:&quot;Fira Mono, Bold&quot;;font-variant-ligatures:normal;font-variant-caps:normal;font-variant-numeric:normal;font-variant-east-asian:normal;text-align:center" text-anchor="middle"><tspan x="-516.624" y="124.853" style="-inkscape-font-specification:&quot;Fira Mono, Bold&quot;;font-variant-ligatures:normal;font-variant-caps:normal;font-variant-numeric:normal;font-variant-east-asian:normal;text-align:center">Image patch</tspan><tspan x="-516.624" y="128.796" style="-inkscape-font-specification:&quot;Fira Mono, Bold&quot;;font-variant-ligatures:normal;font-variant-caps:normal;font-variant-numeric:normal;font-variant-east-asian:normal;text-align:center">tokens</tspan></text><text xml:space="preserve" x="-490.57" y="66.814" fill="#f9f9f9" stroke="#1a1a1a" stroke-linecap="round" stroke-linejoin="bevel" stroke-width="1.058" font-family="Fira Mono" font-size="3.154" font-weight="700" paint-order="markers stroke fill" style="-inkscape-font-specification:&quot;Fira Mono, Bold&quot;;font-variant-ligatures:normal;font-variant-caps:normal;font-variant-numeric:normal;font-variant-east-asian:normal;text-align:center" text-anchor="middle"><tspan x="-490.57" y="66.814" style="-inkscape-font-specification:&quot;Fira Mono, Bold&quot;;font-variant-ligatures:normal;font-variant-caps:normal;font-variant-numeric:normal;font-variant-east-asian:normal;text-align:center">Output tokens</tspan><tspan x="-490.57" y="70.756" style="-inkscape-font-specification:&quot;Fira Mono, Bold&quot;;font-variant-ligatures:normal;font-variant-caps:normal;font-variant-numeric:normal;font-variant-east-asian:normal;text-align:center">(x4)</tspan></text><path fill="#f9f9f9" stroke="#1a1a1a" stroke-linecap="round" stroke-width=".794" d="m-516.307 105.819-.919 1.428h.737v4.674h.364v-4.674h.737zM-516.307 90.308l-.919 1.428h.737v4.674h.364v-4.674h.737z" paint-order="markers stroke fill"/><path id="b" fill="#f9f9f9" stroke="#1a1a1a" stroke-dasharray="none" stroke-linecap="round" stroke-linejoin="miter" stroke-width=".794" d="m-516.307 50.258-.919 1.428h.737v2.028h.365v-2.028h.736z" paint-order="markers stroke fill"/><text xml:space="preserve" x="-550.271" y="59.749" fill="#f9f9f9" stroke="#1a1a1a" stroke-linecap="round" stroke-linejoin="bevel" stroke-width="1.058" font-family="Fira Mono" font-size="3.154" font-weight="700" paint-order="markers stroke fill" style="-inkscape-font-specification:&quot;Fira Mono, Bold&quot;;font-variant-ligatures:normal;font-variant-caps:normal;font-variant-numeric:normal;font-variant-east-asian:normal;text-align:center" text-anchor="middle"><tspan x="-550.271" y="59.749" style="-inkscape-font-specification:&quot;Fira Mono, Bold&quot;;font-variant-ligatures:normal;font-variant-caps:normal;font-variant-numeric:normal;font-variant-east-asian:normal;text-align:center">Image Encoder</tspan><tspan x="-550.271" y="63.691" style="-inkscape-font-specification:&quot;Fira Mono, Bold&quot;;font-variant-ligatures:normal;font-variant-caps:normal;font-variant-numeric:normal;font-variant-east-asian:normal;text-align:center">(Depth-Anything)</tspan></text><use xlink:href="#b" transform="translate(0 -10.252)"/><use xlink:href="#b" transform="translate(0 -20.496)"/></g></svg>